<svg xmlns="http://www.w3.org/2000/svg" width="206" height="60" fill="none" viewBox="0 0 206 60">
  <path fill="#000" d="M16.046 28 9.681 4.727h2.864l4.863 18.955h.227L22.59 4.727h3.182l4.954 18.955h.227l4.864-18.955h2.864L32.318 28H29.41L24.273 9.455h-.182L18.954 28h-2.909Zm31.477.364c-1.682 0-3.133-.372-4.353-1.114-1.212-.75-2.147-1.796-2.806-3.136-.652-1.349-.978-2.917-.978-4.705 0-1.788.326-3.363.978-4.727.659-1.371 1.575-2.44 2.75-3.205 1.181-.773 2.56-1.159 4.136-1.159.91 0 1.807.152 2.693.455a6.674 6.674 0 0 1 2.42 1.477c.728.674 1.307 1.568 1.74 2.682.431 1.114.647 2.485.647 4.114v1.136H41.295v-2.318h10.728c0-.985-.197-1.864-.591-2.637a4.452 4.452 0 0 0-1.66-1.83c-.711-.446-1.552-.67-2.522-.67-1.068 0-1.992.265-2.773.796a5.232 5.232 0 0 0-1.784 2.045 6.008 6.008 0 0 0-.625 2.705v1.545c0 1.318.227 2.436.682 3.352.462.91 1.102 1.603 1.92 2.08.819.47 1.77.704 2.853.704.704 0 1.34-.098 1.909-.295a4.088 4.088 0 0 0 1.488-.909c.417-.41.74-.917.966-1.523l2.591.727a5.745 5.745 0 0 1-1.375 2.319c-.644.659-1.44 1.174-2.386 1.545-.947.364-2.011.546-3.193.546ZM61.51 4.727V28h-2.68V4.727h2.681Zm12.003 23.637c-1.636 0-3.045-.387-4.227-1.16-1.182-.772-2.091-1.837-2.727-3.193-.637-1.356-.955-2.905-.955-4.647 0-1.773.326-3.338.977-4.694.66-1.363 1.576-2.428 2.75-3.193 1.182-.773 2.561-1.159 4.137-1.159 1.227 0 2.333.228 3.318.682a6.353 6.353 0 0 1 2.42 1.91c.63.817 1.02 1.772 1.17 2.863h-2.681c-.204-.796-.66-1.5-1.364-2.114-.697-.621-1.636-.932-2.818-.932-1.045 0-1.962.273-2.75.819-.78.537-1.39 1.299-1.83 2.284-.431.977-.647 2.124-.647 3.443 0 1.348.212 2.523.636 3.523.432 1 1.038 1.776 1.819 2.329.787.553 1.712.83 2.772.83.697 0 1.33-.122 1.898-.364a3.914 3.914 0 0 0 1.443-1.046c.394-.454.674-1 .841-1.636h2.682a6.213 6.213 0 0 1-1.125 2.784c-.591.818-1.375 1.47-2.352 1.955-.97.477-2.099.716-3.387.716Zm17.875 0c-1.576 0-2.958-.375-4.147-1.125-1.182-.75-2.107-1.8-2.773-3.148-.66-1.349-.989-2.924-.989-4.727 0-1.819.33-3.406.989-4.762.666-1.356 1.59-2.409 2.773-3.159 1.189-.75 2.571-1.125 4.147-1.125s2.955.375 4.137 1.125c1.189.75 2.113 1.803 2.772 3.16.667 1.355 1 2.943 1 4.76 0 1.804-.333 3.38-1 4.728-.659 1.348-1.583 2.398-2.772 3.148-1.182.75-2.561 1.125-4.137 1.125Zm0-2.41c1.197 0 2.182-.306 2.955-.92.773-.613 1.344-1.42 1.716-2.42.37-1 .556-2.084.556-3.25 0-1.167-.185-2.254-.556-3.262-.372-1.007-.944-1.822-1.716-2.443-.773-.621-1.758-.932-2.955-.932s-2.182.31-2.954.932c-.773.621-1.345 1.436-1.716 2.443-.371 1.008-.557 2.095-.557 3.262 0 1.166.185 2.25.557 3.25.371 1 .943 1.806 1.716 2.42.772.614 1.757.92 2.954.92ZM103.392 28V10.546h2.591v2.727h.227c.364-.932.951-1.656 1.762-2.17.81-.524 1.784-.785 2.92-.785 1.152 0 2.11.261 2.875.784.773.515 1.375 1.239 1.807 2.17h.182a5.083 5.083 0 0 1 2.011-2.147c.894-.538 1.966-.807 3.216-.807 1.561 0 2.837.489 3.829 1.466.993.97 1.489 2.481 1.489 4.534V28h-2.682V16.318c0-1.288-.352-2.208-1.057-2.761-.704-.553-1.534-.83-2.488-.83-1.227 0-2.178.371-2.852 1.114-.675.735-1.012 1.667-1.012 2.795V28h-2.727V16.046c0-.993-.322-1.792-.966-2.398-.644-.614-1.473-.92-2.489-.92-.697 0-1.348.185-1.954.556a4.209 4.209 0 0 0-1.455 1.545c-.363.652-.545 1.406-.545 2.262V28h-2.682Zm35.131.364c-1.682 0-3.133-.372-4.353-1.114-1.212-.75-2.147-1.796-2.806-3.136-.652-1.349-.978-2.917-.978-4.705 0-1.788.326-3.363.978-4.727.659-1.371 1.575-2.44 2.75-3.205 1.181-.773 2.56-1.159 4.136-1.159.909 0 1.807.152 2.693.455a6.677 6.677 0 0 1 2.421 1.477c.727.674 1.306 1.568 1.738 2.682.432 1.114.648 2.485.648 4.114v1.136h-13.455v-2.318h10.728c0-.985-.197-1.864-.591-2.637a4.462 4.462 0 0 0-1.659-1.83c-.712-.446-1.553-.67-2.523-.67-1.068 0-1.992.265-2.773.796a5.241 5.241 0 0 0-1.784 2.045 6.018 6.018 0 0 0-.625 2.705v1.545c0 1.318.227 2.436.682 3.352.462.91 1.102 1.603 1.92 2.08.819.47 1.769.704 2.853.704.704 0 1.341-.098 1.909-.295a4.077 4.077 0 0 0 1.488-.909c.417-.41.739-.917.966-1.523l2.591.727a5.735 5.735 0 0 1-1.375 2.319c-.644.659-1.439 1.174-2.386 1.545-.947.364-2.011.546-3.193.546Zm27.897-17.819v2.273h-9.045v-2.272h9.045Zm-6.409-4.181h2.682V23c0 .758.11 1.326.33 1.704.227.372.515.622.863.75.356.122.731.182 1.125.182.296 0 .538-.015.728-.045l.454-.091.546 2.41a5.455 5.455 0 0 1-.762.204c-.325.075-.738.113-1.238.113-.758 0-1.5-.163-2.228-.488a4.425 4.425 0 0 1-1.795-1.489c-.47-.667-.705-1.508-.705-2.523V6.364Zm17.347 22c-1.576 0-2.958-.375-4.148-1.125-1.182-.75-2.106-1.8-2.772-3.148-.66-1.349-.989-2.924-.989-4.727 0-1.819.329-3.406.989-4.762.666-1.356 1.59-2.409 2.772-3.159 1.19-.75 2.572-1.125 4.148-1.125 1.576 0 2.955.375 4.136 1.125 1.19.75 2.114 1.803 2.773 3.16.667 1.355 1 2.943 1 4.76 0 1.804-.333 3.38-1 4.728-.659 1.348-1.583 2.398-2.773 3.148-1.181.75-2.56 1.125-4.136 1.125Zm0-2.41c1.197 0 2.182-.306 2.954-.92.773-.613 1.345-1.42 1.716-2.42.372-1 .557-2.084.557-3.25 0-1.167-.185-2.254-.557-3.262-.371-1.007-.943-1.822-1.716-2.443-.772-.621-1.757-.932-2.954-.932-1.197 0-2.182.31-2.955.932-.772.621-1.344 1.436-1.715 2.443-.372 1.008-.557 2.095-.557 3.262 0 1.166.185 2.25.557 3.25.371 1 .943 1.806 1.715 2.42.773.614 1.758.92 2.955.92ZM11.023 56V32.727h9.318c1.712 0 3.14.254 4.284.762 1.144.507 2.004 1.212 2.58 2.113.575.894.863 1.925.863 3.091 0 .91-.182 1.709-.545 2.398a4.707 4.707 0 0 1-1.5 1.682 6.149 6.149 0 0 1-2.16.92v.227a5.21 5.21 0 0 1 2.49.75c.78.463 1.412 1.11 1.897 1.944.485.825.727 1.81.727 2.954 0 1.235-.306 2.337-.92 3.307-.606.962-1.504 1.724-2.693 2.284-1.19.56-2.656.841-4.398.841h-9.943Zm4.92-4.023h4.011c1.372 0 2.372-.261 3-.784.63-.53.944-1.235.944-2.113 0-.644-.156-1.213-.466-1.705-.31-.492-.754-.879-1.33-1.16-.568-.28-1.246-.42-2.034-.42h-4.125v6.182Zm0-9.511h3.648c.674 0 1.273-.117 1.795-.352.53-.243.947-.584 1.25-1.023.311-.44.466-.966.466-1.58 0-.84-.299-1.519-.898-2.034-.59-.515-1.431-.772-2.522-.772h-3.739v5.76ZM37.065 56.33c-1.113 0-2.106-.194-2.977-.58a4.793 4.793 0 0 1-2.068-1.739c-.5-.772-.75-1.735-.75-2.886 0-.97.178-1.784.534-2.443.356-.66.84-1.19 1.454-1.591a7.057 7.057 0 0 1 2.091-.91 15.941 15.941 0 0 1 2.478-.431 62.567 62.567 0 0 0 2.454-.295c.622-.099 1.072-.243 1.352-.432.28-.19.421-.47.421-.841v-.068c0-.72-.227-1.277-.682-1.67-.447-.395-1.083-.592-1.909-.592-.871 0-1.564.194-2.08.58-.515.379-.855.856-1.022 1.432l-4.477-.364c.227-1.06.674-1.977 1.34-2.75.667-.78 1.527-1.379 2.58-1.795 1.06-.425 2.288-.637 3.682-.637.97 0 1.898.114 2.784.341a7.29 7.29 0 0 1 2.375 1.057 5.136 5.136 0 0 1 1.648 1.84c.401.743.602 1.633.602 2.671V56h-4.591v-2.42h-.136a4.925 4.925 0 0 1-1.125 1.443c-.47.409-1.035.73-1.694.966-.659.227-1.42.34-2.284.34Zm1.387-3.341c.712 0 1.34-.14 1.886-.42a3.343 3.343 0 0 0 1.284-1.16c.31-.485.466-1.034.466-1.648V47.91c-.151.099-.36.19-.625.273a11.4 11.4 0 0 1-.875.216c-.326.06-.651.117-.977.17l-.887.125a5.988 5.988 0 0 0-1.488.398c-.424.182-.754.428-.989.739-.235.303-.352.681-.352 1.136 0 .659.238 1.163.716 1.511.485.341 1.098.512 1.84.512Zm21.483-14.444v3.637H49.423v-3.637h10.512Zm-8.125-4.181h4.84v16.272c0 .447.069.796.205 1.046.137.242.326.413.568.511.25.099.538.148.864.148.227 0 .455-.019.682-.057.227-.045.401-.08.523-.102l.76 3.602c-.242.076-.583.163-1.022.261-.44.106-.973.17-1.602.194-1.167.045-2.19-.11-3.068-.466-.872-.356-1.55-.91-2.034-1.66-.485-.75-.724-1.696-.716-2.84v-16.91Zm20.562 4.181v3.637H61.861v-3.637h10.511Zm-8.125-4.181h4.841v16.272c0 .447.068.796.205 1.046.136.242.325.413.568.511.25.099.538.148.863.148.228 0 .455-.019.682-.057.227-.045.402-.08.523-.102l.761 3.602c-.242.076-.583.163-1.022.261-.44.106-.974.17-1.603.194-1.166.045-2.19-.11-3.068-.466-.871-.356-1.55-.91-2.034-1.66-.485-.75-.723-1.696-.716-2.84v-16.91ZM83.293 56.34c-1.796 0-3.341-.364-4.637-1.091a7.471 7.471 0 0 1-2.977-3.114c-.697-1.348-1.046-2.943-1.046-4.784 0-1.795.349-3.37 1.046-4.727.697-1.356 1.678-2.413 2.943-3.17 1.273-.758 2.765-1.137 4.477-1.137 1.152 0 2.224.186 3.216.557 1 .364 1.872.913 2.614 1.648.75.735 1.333 1.659 1.75 2.772.417 1.106.625 2.402.625 3.887v1.33H76.565v-3h10.182c0-.698-.151-1.315-.454-1.853a3.256 3.256 0 0 0-1.262-1.261c-.53-.31-1.148-.466-1.852-.466-.735 0-1.386.17-1.955.511-.56.334-1 .784-1.318 1.352a3.82 3.82 0 0 0-.488 1.875v2.853c0 .863.159 1.61.477 2.238a3.493 3.493 0 0 0 1.375 1.455c.59.34 1.292.511 2.102.511.538 0 1.03-.075 1.477-.227a3.06 3.06 0 0 0 1.148-.682 2.97 2.97 0 0 0 .727-1.113l4.478.295a6.114 6.114 0 0 1-1.398 2.818c-.697.796-1.599 1.417-2.705 1.864-1.098.44-2.367.659-3.806.659Zm11.17-.34V38.545h4.693v3.046h.182c.318-1.083.852-1.902 1.602-2.455.75-.56 1.614-.84 2.591-.84.243 0 .504.015.784.045.281.03.527.072.739.125v4.295a6.333 6.333 0 0 0-.943-.181 8.484 8.484 0 0 0-1.102-.08c-.713 0-1.349.155-1.91.466a3.43 3.43 0 0 0-1.318 1.273c-.318.545-.477 1.174-.477 1.886V56h-4.84Zm27.617-12.477-4.432.272a2.295 2.295 0 0 0-.489-1.022 2.588 2.588 0 0 0-.989-.739c-.401-.19-.882-.284-1.443-.284-.75 0-1.382.16-1.897.477-.516.31-.773.728-.773 1.25 0 .417.166.77.5 1.057.333.288.905.519 1.716.693l3.159.637c1.697.348 2.962.909 3.795 1.681.834.773 1.25 1.788 1.25 3.046 0 1.144-.337 2.148-1.011 3.011-.667.864-1.583 1.538-2.75 2.023-1.159.477-2.496.716-4.011.716-2.311 0-4.152-.481-5.523-1.443-1.364-.97-2.163-2.288-2.398-3.955l4.761-.25c.144.705.493 1.243 1.046 1.614.553.363 1.261.545 2.125.545.848 0 1.53-.163 2.045-.488.523-.334.788-.762.796-1.284-.008-.44-.193-.8-.557-1.08-.364-.288-.924-.508-1.682-.66l-3.023-.601c-1.704-.341-2.973-.932-3.806-1.773-.826-.841-1.239-1.913-1.239-3.216 0-1.121.303-2.087.909-2.898.614-.81 1.474-1.435 2.58-1.875 1.113-.44 2.416-.659 3.909-.659 2.204 0 3.939.466 5.204 1.398 1.273.932 2.015 2.2 2.228 3.807Zm8.286 2.386V56h-4.84V32.727h4.704v8.898h.205c.394-1.03 1.03-1.837 1.909-2.42.879-.591 1.981-.887 3.307-.887 1.212 0 2.269.265 3.17.796.909.522 1.614 1.276 2.114 2.261.507.977.757 2.148.75 3.511V56h-4.841V45.75c.007-1.076-.265-1.913-.818-2.511-.546-.599-1.311-.898-2.296-.898-.659 0-1.242.14-1.75.42-.5.28-.894.69-1.182 1.228-.28.53-.424 1.17-.432 1.92Zm20.106 10.42c-1.114 0-2.106-.193-2.978-.579a4.796 4.796 0 0 1-2.068-1.739c-.5-.772-.75-1.735-.75-2.886 0-.97.178-1.784.534-2.443.356-.66.841-1.19 1.455-1.591a7.042 7.042 0 0 1 2.091-.91 15.93 15.93 0 0 1 2.477-.431 62.85 62.85 0 0 0 2.455-.295c.621-.099 1.071-.243 1.352-.432.28-.19.42-.47.42-.841v-.068c0-.72-.227-1.277-.682-1.67-.447-.395-1.083-.592-1.909-.592-.871 0-1.564.194-2.079.58-.515.379-.856.856-1.023 1.432l-4.477-.364c.227-1.06.674-1.977 1.341-2.75.666-.78 1.526-1.379 2.579-1.795 1.061-.425 2.288-.637 3.682-.637.97 0 1.898.114 2.784.341a7.28 7.28 0 0 1 2.375 1.057 5.141 5.141 0 0 1 1.648 1.84c.401.743.602 1.633.602 2.671V56h-4.591v-2.42h-.136a4.915 4.915 0 0 1-1.125 1.443 5.21 5.21 0 0 1-1.693.966c-.659.227-1.421.34-2.284.34Zm1.386-3.34c.712 0 1.341-.14 1.886-.42a3.334 3.334 0 0 0 1.284-1.16 2.986 2.986 0 0 0 .466-1.648V47.91c-.151.099-.36.19-.625.273-.257.076-.549.148-.875.216-.325.06-.651.117-.977.17l-.886.125a5.99 5.99 0 0 0-1.489.398c-.424.182-.754.428-.989.739-.234.303-.352.681-.352 1.136 0 .659.239 1.163.716 1.511.485.341 1.099.512 1.841.512Zm21.585-14.444v3.637H162.67v-3.637h10.773ZM165.136 56V37.284c0-1.265.247-2.314.739-3.148a4.747 4.747 0 0 1 2.045-1.875c.864-.416 1.845-.625 2.944-.625.742 0 1.42.057 2.034.17a14.05 14.05 0 0 1 1.386.308l-.864 3.636a6.048 6.048 0 0 0-.704-.17 4.4 4.4 0 0 0-.841-.08c-.712 0-1.208.167-1.489.5-.28.326-.42.784-.42 1.375V56h-4.83Zm20.549-17.455v3.637h-10.512v-3.637h10.512Zm-8.125-4.181h4.841v16.272c0 .447.068.796.204 1.046.136.242.326.413.568.511.25.099.538.148.864.148.227 0 .454-.019.682-.057.227-.045.401-.08.522-.102l.762 3.602a13.31 13.31 0 0 1-1.023.261c-.439.106-.973.17-1.602.194-1.167.045-2.19-.11-3.068-.466-.872-.356-1.55-.91-2.034-1.66-.485-.75-.724-1.696-.716-2.84v-16.91Z"/>
</svg>
