<svg width="193" height="192" viewBox="0 0 193 192" fill="none" xmlns="http://www.w3.org/2000/svg">
<path fill-rule="evenodd" clip-rule="evenodd" d="M17.448 88.8069C17.448 84.042 18.1617 53.7165 18.1617 48.0984C18.1617 42.4802 21.8591 32.7121 33.5479 21.2231C45.2379 9.73289 56.5692 7.70444 69.122 3.38176C81.6748 -0.938543 85.8101 0.11263 96.945 0.11263C108.079 0.11263 108.532 -0.294966 125.066 4.32329C141.601 8.94154 153.228 16.3665 162.81 24.64C172.392 32.9135 172.16 40.4362 174.08 47.8326C175.997 55.2313 175.997 73.2336 175.997 88.5411C190.858 102.379 193 108.96 193 134.808C193 160.657 179.915 178.949 170.527 185.893C161.138 192.835 165.27 191.358 159.853 191.945C154.436 192.53 148.445 188.28 148.445 188.28L148.228 92.7399L156.883 87.3636C156.883 87.3636 158.064 57.7925 158.064 52.0182C158.064 46.2451 153.063 36.9013 150.057 32.7121C147.051 28.5241 137.708 24.64 127.012 21.2231C116.316 17.805 110.768 17.0125 96.945 17.0673C83.1211 17.1233 78.9846 17.0851 64.8825 21.2231C50.7804 25.3599 52.4043 25.6185 45.0414 32.7121C37.6797 39.8058 34.7291 46.2153 34.9101 52.3841C35.09 58.5529 35.8617 88.9761 35.8617 88.9761L46.6794 95.2701L45.0414 185.01C45.0414 185.01 40.3569 190.003 35.09 190.802C29.8232 191.6 26.0773 188.754 17.448 182.465C8.81867 176.175 0 162.09 0 136.986C0 111.883 0.0520772 102.379 17.448 88.8069Z" fill="black"/>
<path fill-rule="evenodd" clip-rule="evenodd" d="M54.6909 128.142L63.7013 100.14L82.3056 154.933L97.1651 80.711L109.959 155.139L128.741 100.643L139.632 128.024L138.711 163.409L129.547 129.655L110.983 183.734L96.8042 129.256L82.8832 183.582L64.6138 129.133L54.6163 163.233L54.6909 128.142Z" fill="black"/>
</svg>
