<svg width="223" height="219" viewBox="0 0 223 219" fill="none" xmlns="http://www.w3.org/2000/svg">
<path d="M111.5 0L136.533 75.6626H217.543L152.005 122.425L177.038 198.087L111.5 151.325L45.9619 198.087L70.9953 122.425L5.4572 75.6626H86.4667L111.5 0Z" fill="#C4C4C4"/>
<path fill-rule="evenodd" clip-rule="evenodd" d="M65.9444 106.016C65.9444 103.708 66.3512 89.0189 66.3512 86.2976C66.3512 83.5763 68.4585 78.8449 75.1206 73.2799C81.7832 67.7144 88.2415 66.7318 95.396 64.638C102.55 62.5454 104.907 63.0546 111.254 63.0546C117.599 63.0546 117.858 62.8571 127.281 65.0941C136.705 67.3311 143.332 70.9275 148.793 74.935C154.254 78.9425 154.122 82.5863 155.216 86.1689C156.309 89.7527 156.309 98.4725 156.309 105.887C164.779 112.59 166 115.778 166 128.298C166 140.818 158.542 149.679 153.191 153.042C147.84 156.404 150.196 155.689 147.108 155.973C144.021 156.257 140.606 154.198 140.606 154.198L140.483 107.921L145.415 105.317C145.415 105.317 146.088 90.9932 146.088 88.1963C146.088 85.4 143.238 80.8741 141.525 78.8449C139.811 76.8164 134.486 74.935 128.39 73.2799C122.294 71.6243 119.132 71.2404 111.254 71.267C103.375 71.2941 101.017 71.2756 92.9797 73.2799C84.9422 75.2837 85.8677 75.409 81.6713 78.8449C77.4755 82.2809 75.7938 85.3855 75.897 88.3735C75.9995 91.3616 76.4393 106.098 76.4393 106.098L82.6049 109.146L81.6713 152.614C81.6713 152.614 79.0013 155.033 75.9995 155.42C72.9977 155.806 70.8627 154.428 65.9444 151.382C61.0262 148.335 56 141.512 56 129.352C56 117.193 56.0297 112.59 65.9444 106.016Z" fill="black"/>
<path fill-rule="evenodd" clip-rule="evenodd" d="M87.171 125.069L92.3064 111.505L102.91 138.046L111.379 102.094L118.671 138.146L129.376 111.749L135.583 125.012L135.058 142.151L129.835 125.802L119.255 151.996L111.173 125.608L103.239 151.922L92.8265 125.549L87.1285 142.066L87.171 125.069Z" fill="black"/>
</svg>
