<svg width="898" height="926" viewBox="0 0 898 926" fill="none" xmlns="http://www.w3.org/2000/svg">
<rect width="898" height="926" fill="#E5E5E5"/>
<rect width="428" height="926" fill="white"/>
<rect x="89.5" y="84.5" width="249" height="54" rx="9.5" fill="#D3D3D3" stroke="black"/>
<rect x="89.5" y="165.5" width="249" height="54" rx="9.5" fill="white" stroke="black"/>
<path d="M184.008 111.395C182.078 110.84 180.672 110.16 179.789 109.355C178.914 108.543 178.477 107.543 178.477 106.355C178.477 105.012 179.012 103.902 180.082 103.027C181.16 102.145 182.559 101.703 184.277 101.703C185.449 101.703 186.492 101.93 187.406 102.383C188.328 102.836 189.039 103.461 189.539 104.258C190.047 105.055 190.301 105.926 190.301 106.871H188.039C188.039 105.84 187.711 105.031 187.055 104.445C186.398 103.852 185.473 103.555 184.277 103.555C183.168 103.555 182.301 103.801 181.676 104.293C181.059 104.777 180.75 105.453 180.75 106.32C180.75 107.016 181.043 107.605 181.629 108.09C182.223 108.566 183.227 109.004 184.641 109.402C186.062 109.801 187.172 110.242 187.969 110.727C188.773 111.203 189.367 111.762 189.75 112.402C190.141 113.043 190.336 113.797 190.336 114.664C190.336 116.047 189.797 117.156 188.719 117.992C187.641 118.82 186.199 119.234 184.395 119.234C183.223 119.234 182.129 119.012 181.113 118.566C180.098 118.113 179.312 117.496 178.758 116.715C178.211 115.934 177.938 115.047 177.938 114.055H180.199C180.199 115.086 180.578 115.902 181.336 116.504C182.102 117.098 183.121 117.395 184.395 117.395C185.582 117.395 186.492 117.152 187.125 116.668C187.758 116.184 188.074 115.523 188.074 114.688C188.074 113.852 187.781 113.207 187.195 112.754C186.609 112.293 185.547 111.84 184.008 111.395ZM195.246 119H193.078V106.32H195.246V119ZM192.902 102.957C192.902 102.605 193.008 102.309 193.219 102.066C193.438 101.824 193.758 101.703 194.18 101.703C194.602 101.703 194.922 101.824 195.141 102.066C195.359 102.309 195.469 102.605 195.469 102.957C195.469 103.309 195.359 103.602 195.141 103.836C194.922 104.07 194.602 104.188 194.18 104.188C193.758 104.188 193.438 104.07 193.219 103.836C193.008 103.602 192.902 103.309 192.902 102.957ZM198.211 112.555C198.211 110.578 198.668 109.008 199.582 107.844C200.496 106.672 201.707 106.086 203.215 106.086C204.762 106.086 205.969 106.633 206.836 107.727L206.941 106.32H208.922V118.695C208.922 120.336 208.434 121.629 207.457 122.574C206.488 123.52 205.184 123.992 203.543 123.992C202.629 123.992 201.734 123.797 200.859 123.406C199.984 123.016 199.316 122.48 198.855 121.801L199.98 120.5C200.91 121.648 202.047 122.223 203.391 122.223C204.445 122.223 205.266 121.926 205.852 121.332C206.445 120.738 206.742 119.902 206.742 118.824V117.734C205.875 118.734 204.691 119.234 203.191 119.234C201.707 119.234 200.504 118.637 199.582 117.441C198.668 116.246 198.211 114.617 198.211 112.555ZM200.391 112.801C200.391 114.23 200.684 115.355 201.27 116.176C201.855 116.988 202.676 117.395 203.73 117.395C205.098 117.395 206.102 116.773 206.742 115.531V109.742C206.078 108.531 205.082 107.926 203.754 107.926C202.699 107.926 201.875 108.336 201.281 109.156C200.688 109.977 200.391 111.191 200.391 112.801ZM214.254 106.32L214.324 107.914C215.293 106.695 216.559 106.086 218.121 106.086C220.801 106.086 222.152 107.598 222.176 110.621V119H220.008V110.609C220 109.695 219.789 109.02 219.375 108.582C218.969 108.145 218.332 107.926 217.465 107.926C216.762 107.926 216.145 108.113 215.613 108.488C215.082 108.863 214.668 109.355 214.371 109.965V119H212.203V106.32H214.254ZM233.754 119H231.586V106.32H233.754V119ZM231.41 102.957C231.41 102.605 231.516 102.309 231.727 102.066C231.945 101.824 232.266 101.703 232.688 101.703C233.109 101.703 233.43 101.824 233.648 102.066C233.867 102.309 233.977 102.605 233.977 102.957C233.977 103.309 233.867 103.602 233.648 103.836C233.43 104.07 233.109 104.188 232.688 104.188C232.266 104.188 231.945 104.07 231.727 103.836C231.516 103.602 231.41 103.309 231.41 102.957ZM239.285 106.32L239.355 107.914C240.324 106.695 241.59 106.086 243.152 106.086C245.832 106.086 247.184 107.598 247.207 110.621V119H245.039V110.609C245.031 109.695 244.82 109.02 244.406 108.582C244 108.145 243.363 107.926 242.496 107.926C241.793 107.926 241.176 108.113 240.645 108.488C240.113 108.863 239.699 109.355 239.402 109.965V119H237.234V106.32H239.285Z" fill="black"/>
<path d="M180.008 192.395C178.078 191.84 176.672 191.16 175.789 190.355C174.914 189.543 174.477 188.543 174.477 187.355C174.477 186.012 175.012 184.902 176.082 184.027C177.16 183.145 178.559 182.703 180.277 182.703C181.449 182.703 182.492 182.93 183.406 183.383C184.328 183.836 185.039 184.461 185.539 185.258C186.047 186.055 186.301 186.926 186.301 187.871H184.039C184.039 186.84 183.711 186.031 183.055 185.445C182.398 184.852 181.473 184.555 180.277 184.555C179.168 184.555 178.301 184.801 177.676 185.293C177.059 185.777 176.75 186.453 176.75 187.32C176.75 188.016 177.043 188.605 177.629 189.09C178.223 189.566 179.227 190.004 180.641 190.402C182.062 190.801 183.172 191.242 183.969 191.727C184.773 192.203 185.367 192.762 185.75 193.402C186.141 194.043 186.336 194.797 186.336 195.664C186.336 197.047 185.797 198.156 184.719 198.992C183.641 199.82 182.199 200.234 180.395 200.234C179.223 200.234 178.129 200.012 177.113 199.566C176.098 199.113 175.312 198.496 174.758 197.715C174.211 196.934 173.938 196.047 173.938 195.055H176.199C176.199 196.086 176.578 196.902 177.336 197.504C178.102 198.098 179.121 198.395 180.395 198.395C181.582 198.395 182.492 198.152 183.125 197.668C183.758 197.184 184.074 196.523 184.074 195.688C184.074 194.852 183.781 194.207 183.195 193.754C182.609 193.293 181.547 192.84 180.008 192.395ZM191.246 200H189.078V187.32H191.246V200ZM188.902 183.957C188.902 183.605 189.008 183.309 189.219 183.066C189.438 182.824 189.758 182.703 190.18 182.703C190.602 182.703 190.922 182.824 191.141 183.066C191.359 183.309 191.469 183.605 191.469 183.957C191.469 184.309 191.359 184.602 191.141 184.836C190.922 185.07 190.602 185.188 190.18 185.188C189.758 185.188 189.438 185.07 189.219 184.836C189.008 184.602 188.902 184.309 188.902 183.957ZM194.211 193.555C194.211 191.578 194.668 190.008 195.582 188.844C196.496 187.672 197.707 187.086 199.215 187.086C200.762 187.086 201.969 187.633 202.836 188.727L202.941 187.32H204.922V199.695C204.922 201.336 204.434 202.629 203.457 203.574C202.488 204.52 201.184 204.992 199.543 204.992C198.629 204.992 197.734 204.797 196.859 204.406C195.984 204.016 195.316 203.48 194.855 202.801L195.98 201.5C196.91 202.648 198.047 203.223 199.391 203.223C200.445 203.223 201.266 202.926 201.852 202.332C202.445 201.738 202.742 200.902 202.742 199.824V198.734C201.875 199.734 200.691 200.234 199.191 200.234C197.707 200.234 196.504 199.637 195.582 198.441C194.668 197.246 194.211 195.617 194.211 193.555ZM196.391 193.801C196.391 195.23 196.684 196.355 197.27 197.176C197.855 197.988 198.676 198.395 199.73 198.395C201.098 198.395 202.102 197.773 202.742 196.531V190.742C202.078 189.531 201.082 188.926 199.754 188.926C198.699 188.926 197.875 189.336 197.281 190.156C196.688 190.977 196.391 192.191 196.391 193.801ZM210.254 187.32L210.324 188.914C211.293 187.695 212.559 187.086 214.121 187.086C216.801 187.086 218.152 188.598 218.176 191.621V200H216.008V191.609C216 190.695 215.789 190.02 215.375 189.582C214.969 189.145 214.332 188.926 213.465 188.926C212.762 188.926 212.145 189.113 211.613 189.488C211.082 189.863 210.668 190.355 210.371 190.965V200H208.203V187.32H210.254ZM235.227 198.746C234.383 199.738 233.145 200.234 231.512 200.234C230.16 200.234 229.129 199.844 228.418 199.062C227.715 198.273 227.359 197.109 227.352 195.57V187.32H229.52V195.512C229.52 197.434 230.301 198.395 231.863 198.395C233.52 198.395 234.621 197.777 235.168 196.543V187.32H237.336V200H235.273L235.227 198.746ZM251.352 193.801C251.352 195.73 250.91 197.285 250.027 198.465C249.145 199.645 247.949 200.234 246.441 200.234C244.902 200.234 243.691 199.746 242.809 198.77V204.875H240.641V187.32H242.621L242.727 188.727C243.609 187.633 244.836 187.086 246.406 187.086C247.93 187.086 249.133 187.66 250.016 188.809C250.906 189.957 251.352 191.555 251.352 193.602V193.801ZM249.184 193.555C249.184 192.125 248.879 190.996 248.27 190.168C247.66 189.34 246.824 188.926 245.762 188.926C244.449 188.926 243.465 189.508 242.809 190.672V196.73C243.457 197.887 244.449 198.465 245.785 198.465C246.824 198.465 247.648 198.055 248.258 197.234C248.875 196.406 249.184 195.18 249.184 193.555Z" fill="black"/>
<rect width="428" height="926" transform="translate(470)" fill="white"/>
<rect x="542.5" y="76.5" width="285" height="67" rx="9.5" fill="white" stroke="black"/>
<path d="M582.469 116.746C581.625 117.738 580.387 118.234 578.754 118.234C577.402 118.234 576.371 117.844 575.66 117.062C574.957 116.273 574.602 115.109 574.594 113.57V105.32H576.762V113.512C576.762 115.434 577.543 116.395 579.105 116.395C580.762 116.395 581.863 115.777 582.41 114.543V105.32H584.578V118H582.516L582.469 116.746ZM595.266 114.637C595.266 114.051 595.043 113.598 594.598 113.277C594.16 112.949 593.391 112.668 592.289 112.434C591.195 112.199 590.324 111.918 589.676 111.59C589.035 111.262 588.559 110.871 588.246 110.418C587.941 109.965 587.789 109.426 587.789 108.801C587.789 107.762 588.227 106.883 589.102 106.164C589.984 105.445 591.109 105.086 592.477 105.086C593.914 105.086 595.078 105.457 595.969 106.199C596.867 106.941 597.316 107.891 597.316 109.047H595.137C595.137 108.453 594.883 107.941 594.375 107.512C593.875 107.082 593.242 106.867 592.477 106.867C591.688 106.867 591.07 107.039 590.625 107.383C590.18 107.727 589.957 108.176 589.957 108.73C589.957 109.254 590.164 109.648 590.578 109.914C590.992 110.18 591.738 110.434 592.816 110.676C593.902 110.918 594.781 111.207 595.453 111.543C596.125 111.879 596.621 112.285 596.941 112.762C597.27 113.23 597.434 113.805 597.434 114.484C597.434 115.617 596.98 116.527 596.074 117.215C595.168 117.895 593.992 118.234 592.547 118.234C591.531 118.234 590.633 118.055 589.852 117.695C589.07 117.336 588.457 116.836 588.012 116.195C587.574 115.547 587.355 114.848 587.355 114.098H589.523C589.562 114.824 589.852 115.402 590.391 115.832C590.938 116.254 591.656 116.465 592.547 116.465C593.367 116.465 594.023 116.301 594.516 115.973C595.016 115.637 595.266 115.191 595.266 114.637ZM605.52 118.234C603.801 118.234 602.402 117.672 601.324 116.547C600.246 115.414 599.707 113.902 599.707 112.012V111.613C599.707 110.355 599.945 109.234 600.422 108.25C600.906 107.258 601.578 106.484 602.438 105.93C603.305 105.367 604.242 105.086 605.25 105.086C606.898 105.086 608.18 105.629 609.094 106.715C610.008 107.801 610.465 109.355 610.465 111.379V112.281H601.875C601.906 113.531 602.27 114.543 602.965 115.316C603.668 116.082 604.559 116.465 605.637 116.465C606.402 116.465 607.051 116.309 607.582 115.996C608.113 115.684 608.578 115.27 608.977 114.754L610.301 115.785C609.238 117.418 607.645 118.234 605.52 118.234ZM605.25 106.867C604.375 106.867 603.641 107.188 603.047 107.828C602.453 108.461 602.086 109.352 601.945 110.5H608.297V110.336C608.234 109.234 607.938 108.383 607.406 107.781C606.875 107.172 606.156 106.867 605.25 106.867ZM619.113 107.266C618.785 107.211 618.43 107.184 618.047 107.184C616.625 107.184 615.66 107.789 615.152 109V118H612.984V105.32H615.094L615.129 106.785C615.84 105.652 616.848 105.086 618.152 105.086C618.574 105.086 618.895 105.141 619.113 105.25V107.266ZM623.168 105.32L623.238 106.914C624.207 105.695 625.473 105.086 627.035 105.086C629.715 105.086 631.066 106.598 631.09 109.621V118H628.922V109.609C628.914 108.695 628.703 108.02 628.289 107.582C627.883 107.145 627.246 106.926 626.379 106.926C625.676 106.926 625.059 107.113 624.527 107.488C623.996 107.863 623.582 108.355 623.285 108.965V118H621.117V105.32H623.168ZM642.188 118C642.062 117.75 641.961 117.305 641.883 116.664C640.875 117.711 639.672 118.234 638.273 118.234C637.023 118.234 635.996 117.883 635.191 117.18C634.395 116.469 633.996 115.57 633.996 114.484C633.996 113.164 634.496 112.141 635.496 111.414C636.504 110.68 637.918 110.312 639.738 110.312H641.848V109.316C641.848 108.559 641.621 107.957 641.168 107.512C640.715 107.059 640.047 106.832 639.164 106.832C638.391 106.832 637.742 107.027 637.219 107.418C636.695 107.809 636.434 108.281 636.434 108.836H634.254C634.254 108.203 634.477 107.594 634.922 107.008C635.375 106.414 635.984 105.945 636.75 105.602C637.523 105.258 638.371 105.086 639.293 105.086C640.754 105.086 641.898 105.453 642.727 106.188C643.555 106.914 643.984 107.918 644.016 109.199V115.035C644.016 116.199 644.164 117.125 644.461 117.812V118H642.188ZM638.59 116.348C639.27 116.348 639.914 116.172 640.523 115.82C641.133 115.469 641.574 115.012 641.848 114.449V111.848H640.148C637.492 111.848 636.164 112.625 636.164 114.18C636.164 114.859 636.391 115.391 636.844 115.773C637.297 116.156 637.879 116.348 638.59 116.348ZM649.453 105.32L649.512 106.727C650.441 105.633 651.695 105.086 653.273 105.086C655.047 105.086 656.254 105.766 656.895 107.125C657.316 106.516 657.863 106.023 658.535 105.648C659.215 105.273 660.016 105.086 660.938 105.086C663.719 105.086 665.133 106.559 665.18 109.504V118H663.012V109.633C663.012 108.727 662.805 108.051 662.391 107.605C661.977 107.152 661.281 106.926 660.305 106.926C659.5 106.926 658.832 107.168 658.301 107.652C657.77 108.129 657.461 108.773 657.375 109.586V118H655.195V109.691C655.195 107.848 654.293 106.926 652.488 106.926C651.066 106.926 650.094 107.531 649.57 108.742V118H647.402V105.32H649.453ZM673.723 118.234C672.004 118.234 670.605 117.672 669.527 116.547C668.449 115.414 667.91 113.902 667.91 112.012V111.613C667.91 110.355 668.148 109.234 668.625 108.25C669.109 107.258 669.781 106.484 670.641 105.93C671.508 105.367 672.445 105.086 673.453 105.086C675.102 105.086 676.383 105.629 677.297 106.715C678.211 107.801 678.668 109.355 678.668 111.379V112.281H670.078C670.109 113.531 670.473 114.543 671.168 115.316C671.871 116.082 672.762 116.465 673.84 116.465C674.605 116.465 675.254 116.309 675.785 115.996C676.316 115.684 676.781 115.27 677.18 114.754L678.504 115.785C677.441 117.418 675.848 118.234 673.723 118.234ZM673.453 106.867C672.578 106.867 671.844 107.188 671.25 107.828C670.656 108.461 670.289 109.352 670.148 110.5H676.5V110.336C676.438 109.234 676.141 108.383 675.609 107.781C675.078 107.172 674.359 106.867 673.453 106.867Z" fill="black"/>
<rect x="542.5" y="169.5" width="285" height="67" rx="9.5" fill="white" stroke="black"/>
<path d="M585.352 204.801C585.352 206.73 584.91 208.285 584.027 209.465C583.145 210.645 581.949 211.234 580.441 211.234C578.902 211.234 577.691 210.746 576.809 209.77V215.875H574.641V198.32H576.621L576.727 199.727C577.609 198.633 578.836 198.086 580.406 198.086C581.93 198.086 583.133 198.66 584.016 199.809C584.906 200.957 585.352 202.555 585.352 204.602V204.801ZM583.184 204.555C583.184 203.125 582.879 201.996 582.27 201.168C581.66 200.34 580.824 199.926 579.762 199.926C578.449 199.926 577.465 200.508 576.809 201.672V207.73C577.457 208.887 578.449 209.465 579.785 209.465C580.824 209.465 581.648 209.055 582.258 208.234C582.875 207.406 583.184 206.18 583.184 204.555ZM595.945 211C595.82 210.75 595.719 210.305 595.641 209.664C594.633 210.711 593.43 211.234 592.031 211.234C590.781 211.234 589.754 210.883 588.949 210.18C588.152 209.469 587.754 208.57 587.754 207.484C587.754 206.164 588.254 205.141 589.254 204.414C590.262 203.68 591.676 203.312 593.496 203.312H595.605V202.316C595.605 201.559 595.379 200.957 594.926 200.512C594.473 200.059 593.805 199.832 592.922 199.832C592.148 199.832 591.5 200.027 590.977 200.418C590.453 200.809 590.191 201.281 590.191 201.836H588.012C588.012 201.203 588.234 200.594 588.68 200.008C589.133 199.414 589.742 198.945 590.508 198.602C591.281 198.258 592.129 198.086 593.051 198.086C594.512 198.086 595.656 198.453 596.484 199.188C597.312 199.914 597.742 200.918 597.773 202.199V208.035C597.773 209.199 597.922 210.125 598.219 210.812V211H595.945ZM592.348 209.348C593.027 209.348 593.672 209.172 594.281 208.82C594.891 208.469 595.332 208.012 595.605 207.449V204.848H593.906C591.25 204.848 589.922 205.625 589.922 207.18C589.922 207.859 590.148 208.391 590.602 208.773C591.055 209.156 591.637 209.348 592.348 209.348ZM608.555 207.637C608.555 207.051 608.332 206.598 607.887 206.277C607.449 205.949 606.68 205.668 605.578 205.434C604.484 205.199 603.613 204.918 602.965 204.59C602.324 204.262 601.848 203.871 601.535 203.418C601.23 202.965 601.078 202.426 601.078 201.801C601.078 200.762 601.516 199.883 602.391 199.164C603.273 198.445 604.398 198.086 605.766 198.086C607.203 198.086 608.367 198.457 609.258 199.199C610.156 199.941 610.605 200.891 610.605 202.047H608.426C608.426 201.453 608.172 200.941 607.664 200.512C607.164 200.082 606.531 199.867 605.766 199.867C604.977 199.867 604.359 200.039 603.914 200.383C603.469 200.727 603.246 201.176 603.246 201.73C603.246 202.254 603.453 202.648 603.867 202.914C604.281 203.18 605.027 203.434 606.105 203.676C607.191 203.918 608.07 204.207 608.742 204.543C609.414 204.879 609.91 205.285 610.23 205.762C610.559 206.23 610.723 206.805 610.723 207.484C610.723 208.617 610.27 209.527 609.363 210.215C608.457 210.895 607.281 211.234 605.836 211.234C604.82 211.234 603.922 211.055 603.141 210.695C602.359 210.336 601.746 209.836 601.301 209.195C600.863 208.547 600.645 207.848 600.645 207.098H602.812C602.852 207.824 603.141 208.402 603.68 208.832C604.227 209.254 604.945 209.465 605.836 209.465C606.656 209.465 607.312 209.301 607.805 208.973C608.305 208.637 608.555 208.191 608.555 207.637ZM620.93 207.637C620.93 207.051 620.707 206.598 620.262 206.277C619.824 205.949 619.055 205.668 617.953 205.434C616.859 205.199 615.988 204.918 615.34 204.59C614.699 204.262 614.223 203.871 613.91 203.418C613.605 202.965 613.453 202.426 613.453 201.801C613.453 200.762 613.891 199.883 614.766 199.164C615.648 198.445 616.773 198.086 618.141 198.086C619.578 198.086 620.742 198.457 621.633 199.199C622.531 199.941 622.98 200.891 622.98 202.047H620.801C620.801 201.453 620.547 200.941 620.039 200.512C619.539 200.082 618.906 199.867 618.141 199.867C617.352 199.867 616.734 200.039 616.289 200.383C615.844 200.727 615.621 201.176 615.621 201.73C615.621 202.254 615.828 202.648 616.242 202.914C616.656 203.18 617.402 203.434 618.48 203.676C619.566 203.918 620.445 204.207 621.117 204.543C621.789 204.879 622.285 205.285 622.605 205.762C622.934 206.23 623.098 206.805 623.098 207.484C623.098 208.617 622.645 209.527 621.738 210.215C620.832 210.895 619.656 211.234 618.211 211.234C617.195 211.234 616.297 211.055 615.516 210.695C614.734 210.336 614.121 209.836 613.676 209.195C613.238 208.547 613.02 207.848 613.02 207.098H615.188C615.227 207.824 615.516 208.402 616.055 208.832C616.602 209.254 617.32 209.465 618.211 209.465C619.031 209.465 619.688 209.301 620.18 208.973C620.68 208.637 620.93 208.191 620.93 207.637ZM637.148 208.012L639.586 198.32H641.754L638.062 211H636.305L633.223 201.391L630.223 211H628.465L624.785 198.32H626.941L629.438 207.812L632.391 198.32H634.137L637.148 208.012ZM643.395 204.543C643.395 203.301 643.637 202.184 644.121 201.191C644.613 200.199 645.293 199.434 646.16 198.895C647.035 198.355 648.031 198.086 649.148 198.086C650.875 198.086 652.27 198.684 653.332 199.879C654.402 201.074 654.938 202.664 654.938 204.648V204.801C654.938 206.035 654.699 207.145 654.223 208.129C653.754 209.105 653.078 209.867 652.195 210.414C651.32 210.961 650.312 211.234 649.172 211.234C647.453 211.234 646.059 210.637 644.988 209.441C643.926 208.246 643.395 206.664 643.395 204.695V204.543ZM645.574 204.801C645.574 206.207 645.898 207.336 646.547 208.188C647.203 209.039 648.078 209.465 649.172 209.465C650.273 209.465 651.148 209.035 651.797 208.176C652.445 207.309 652.77 206.098 652.77 204.543C652.77 203.152 652.438 202.027 651.773 201.168C651.117 200.301 650.242 199.867 649.148 199.867C648.078 199.867 647.215 200.293 646.559 201.145C645.902 201.996 645.574 203.215 645.574 204.801ZM663.785 200.266C663.457 200.211 663.102 200.184 662.719 200.184C661.297 200.184 660.332 200.789 659.824 202V211H657.656V198.32H659.766L659.801 199.785C660.512 198.652 661.52 198.086 662.824 198.086C663.246 198.086 663.566 198.141 663.785 198.25V200.266ZM665.027 204.555C665.027 202.609 665.488 201.047 666.41 199.867C667.332 198.68 668.539 198.086 670.031 198.086C671.516 198.086 672.691 198.594 673.559 199.609V193H675.727V211H673.734L673.629 209.641C672.762 210.703 671.555 211.234 670.008 211.234C668.539 211.234 667.34 210.633 666.41 209.43C665.488 208.227 665.027 206.656 665.027 204.719V204.555ZM667.195 204.801C667.195 206.238 667.492 207.363 668.086 208.176C668.68 208.988 669.5 209.395 670.547 209.395C671.922 209.395 672.926 208.777 673.559 207.543V201.719C672.91 200.523 671.914 199.926 670.57 199.926C669.508 199.926 668.68 200.336 668.086 201.156C667.492 201.977 667.195 203.191 667.195 204.801Z" fill="black"/>
<rect x="696.5" y="271.5" width="129" height="67" rx="9.5" fill="#D3D3D3" stroke="black"/>
<path d="M731.008 305.395C729.078 304.84 727.672 304.16 726.789 303.355C725.914 302.543 725.477 301.543 725.477 300.355C725.477 299.012 726.012 297.902 727.082 297.027C728.16 296.145 729.559 295.703 731.277 295.703C732.449 295.703 733.492 295.93 734.406 296.383C735.328 296.836 736.039 297.461 736.539 298.258C737.047 299.055 737.301 299.926 737.301 300.871H735.039C735.039 299.84 734.711 299.031 734.055 298.445C733.398 297.852 732.473 297.555 731.277 297.555C730.168 297.555 729.301 297.801 728.676 298.293C728.059 298.777 727.75 299.453 727.75 300.32C727.75 301.016 728.043 301.605 728.629 302.09C729.223 302.566 730.227 303.004 731.641 303.402C733.062 303.801 734.172 304.242 734.969 304.727C735.773 305.203 736.367 305.762 736.75 306.402C737.141 307.043 737.336 307.797 737.336 308.664C737.336 310.047 736.797 311.156 735.719 311.992C734.641 312.82 733.199 313.234 731.395 313.234C730.223 313.234 729.129 313.012 728.113 312.566C727.098 312.113 726.312 311.496 725.758 310.715C725.211 309.934 724.938 309.047 724.938 308.055H727.199C727.199 309.086 727.578 309.902 728.336 310.504C729.102 311.098 730.121 311.395 731.395 311.395C732.582 311.395 733.492 311.152 734.125 310.668C734.758 310.184 735.074 309.523 735.074 308.688C735.074 307.852 734.781 307.207 734.195 306.754C733.609 306.293 732.547 305.84 731.008 305.395ZM742.246 313H740.078V300.32H742.246V313ZM739.902 296.957C739.902 296.605 740.008 296.309 740.219 296.066C740.438 295.824 740.758 295.703 741.18 295.703C741.602 295.703 741.922 295.824 742.141 296.066C742.359 296.309 742.469 296.605 742.469 296.957C742.469 297.309 742.359 297.602 742.141 297.836C741.922 298.07 741.602 298.188 741.18 298.188C740.758 298.188 740.438 298.07 740.219 297.836C740.008 297.602 739.902 297.309 739.902 296.957ZM745.211 306.555C745.211 304.578 745.668 303.008 746.582 301.844C747.496 300.672 748.707 300.086 750.215 300.086C751.762 300.086 752.969 300.633 753.836 301.727L753.941 300.32H755.922V312.695C755.922 314.336 755.434 315.629 754.457 316.574C753.488 317.52 752.184 317.992 750.543 317.992C749.629 317.992 748.734 317.797 747.859 317.406C746.984 317.016 746.316 316.48 745.855 315.801L746.98 314.5C747.91 315.648 749.047 316.223 750.391 316.223C751.445 316.223 752.266 315.926 752.852 315.332C753.445 314.738 753.742 313.902 753.742 312.824V311.734C752.875 312.734 751.691 313.234 750.191 313.234C748.707 313.234 747.504 312.637 746.582 311.441C745.668 310.246 745.211 308.617 745.211 306.555ZM747.391 306.801C747.391 308.23 747.684 309.355 748.27 310.176C748.855 310.988 749.676 311.395 750.73 311.395C752.098 311.395 753.102 310.773 753.742 309.531V303.742C753.078 302.531 752.082 301.926 750.754 301.926C749.699 301.926 748.875 302.336 748.281 303.156C747.688 303.977 747.391 305.191 747.391 306.801ZM761.254 300.32L761.324 301.914C762.293 300.695 763.559 300.086 765.121 300.086C767.801 300.086 769.152 301.598 769.176 304.621V313H767.008V304.609C767 303.695 766.789 303.02 766.375 302.582C765.969 302.145 765.332 301.926 764.465 301.926C763.762 301.926 763.145 302.113 762.613 302.488C762.082 302.863 761.668 303.355 761.371 303.965V313H759.203V300.32H761.254ZM780.754 313H778.586V300.32H780.754V313ZM778.41 296.957C778.41 296.605 778.516 296.309 778.727 296.066C778.945 295.824 779.266 295.703 779.688 295.703C780.109 295.703 780.43 295.824 780.648 296.066C780.867 296.309 780.977 296.605 780.977 296.957C780.977 297.309 780.867 297.602 780.648 297.836C780.43 298.07 780.109 298.188 779.688 298.188C779.266 298.188 778.945 298.07 778.727 297.836C778.516 297.602 778.41 297.309 778.41 296.957ZM786.285 300.32L786.355 301.914C787.324 300.695 788.59 300.086 790.152 300.086C792.832 300.086 794.184 301.598 794.207 304.621V313H792.039V304.609C792.031 303.695 791.82 303.02 791.406 302.582C791 302.145 790.363 301.926 789.496 301.926C788.793 301.926 788.176 302.113 787.645 302.488C787.113 302.863 786.699 303.355 786.402 303.965V313H784.234V300.32H786.285Z" fill="black"/>
<rect x="540.5" y="271.5" width="133" height="67" rx="9.5" fill="white" stroke="#333333"/>
<path d="M568.008 305.395C566.078 304.84 564.672 304.16 563.789 303.355C562.914 302.543 562.477 301.543 562.477 300.355C562.477 299.012 563.012 297.902 564.082 297.027C565.16 296.145 566.559 295.703 568.277 295.703C569.449 295.703 570.492 295.93 571.406 296.383C572.328 296.836 573.039 297.461 573.539 298.258C574.047 299.055 574.301 299.926 574.301 300.871H572.039C572.039 299.84 571.711 299.031 571.055 298.445C570.398 297.852 569.473 297.555 568.277 297.555C567.168 297.555 566.301 297.801 565.676 298.293C565.059 298.777 564.75 299.453 564.75 300.32C564.75 301.016 565.043 301.605 565.629 302.09C566.223 302.566 567.227 303.004 568.641 303.402C570.062 303.801 571.172 304.242 571.969 304.727C572.773 305.203 573.367 305.762 573.75 306.402C574.141 307.043 574.336 307.797 574.336 308.664C574.336 310.047 573.797 311.156 572.719 311.992C571.641 312.82 570.199 313.234 568.395 313.234C567.223 313.234 566.129 313.012 565.113 312.566C564.098 312.113 563.312 311.496 562.758 310.715C562.211 309.934 561.938 309.047 561.938 308.055H564.199C564.199 309.086 564.578 309.902 565.336 310.504C566.102 311.098 567.121 311.395 568.395 311.395C569.582 311.395 570.492 311.152 571.125 310.668C571.758 310.184 572.074 309.523 572.074 308.688C572.074 307.852 571.781 307.207 571.195 306.754C570.609 306.293 569.547 305.84 568.008 305.395ZM579.246 313H577.078V300.32H579.246V313ZM576.902 296.957C576.902 296.605 577.008 296.309 577.219 296.066C577.438 295.824 577.758 295.703 578.18 295.703C578.602 295.703 578.922 295.824 579.141 296.066C579.359 296.309 579.469 296.605 579.469 296.957C579.469 297.309 579.359 297.602 579.141 297.836C578.922 298.07 578.602 298.188 578.18 298.188C577.758 298.188 577.438 298.07 577.219 297.836C577.008 297.602 576.902 297.309 576.902 296.957ZM582.211 306.555C582.211 304.578 582.668 303.008 583.582 301.844C584.496 300.672 585.707 300.086 587.215 300.086C588.762 300.086 589.969 300.633 590.836 301.727L590.941 300.32H592.922V312.695C592.922 314.336 592.434 315.629 591.457 316.574C590.488 317.52 589.184 317.992 587.543 317.992C586.629 317.992 585.734 317.797 584.859 317.406C583.984 317.016 583.316 316.48 582.855 315.801L583.98 314.5C584.91 315.648 586.047 316.223 587.391 316.223C588.445 316.223 589.266 315.926 589.852 315.332C590.445 314.738 590.742 313.902 590.742 312.824V311.734C589.875 312.734 588.691 313.234 587.191 313.234C585.707 313.234 584.504 312.637 583.582 311.441C582.668 310.246 582.211 308.617 582.211 306.555ZM584.391 306.801C584.391 308.23 584.684 309.355 585.27 310.176C585.855 310.988 586.676 311.395 587.73 311.395C589.098 311.395 590.102 310.773 590.742 309.531V303.742C590.078 302.531 589.082 301.926 587.754 301.926C586.699 301.926 585.875 302.336 585.281 303.156C584.688 303.977 584.391 305.191 584.391 306.801ZM598.254 300.32L598.324 301.914C599.293 300.695 600.559 300.086 602.121 300.086C604.801 300.086 606.152 301.598 606.176 304.621V313H604.008V304.609C604 303.695 603.789 303.02 603.375 302.582C602.969 302.145 602.332 301.926 601.465 301.926C600.762 301.926 600.145 302.113 599.613 302.488C599.082 302.863 598.668 303.355 598.371 303.965V313H596.203V300.32H598.254ZM623.227 311.746C622.383 312.738 621.145 313.234 619.512 313.234C618.16 313.234 617.129 312.844 616.418 312.062C615.715 311.273 615.359 310.109 615.352 308.57V300.32H617.52V308.512C617.52 310.434 618.301 311.395 619.863 311.395C621.52 311.395 622.621 310.777 623.168 309.543V300.32H625.336V313H623.273L623.227 311.746ZM639.352 306.801C639.352 308.73 638.91 310.285 638.027 311.465C637.145 312.645 635.949 313.234 634.441 313.234C632.902 313.234 631.691 312.746 630.809 311.77V317.875H628.641V300.32H630.621L630.727 301.727C631.609 300.633 632.836 300.086 634.406 300.086C635.93 300.086 637.133 300.66 638.016 301.809C638.906 302.957 639.352 304.555 639.352 306.602V306.801ZM637.184 306.555C637.184 305.125 636.879 303.996 636.27 303.168C635.66 302.34 634.824 301.926 633.762 301.926C632.449 301.926 631.465 302.508 630.809 303.672V309.73C631.457 310.887 632.449 311.465 633.785 311.465C634.824 311.465 635.648 311.055 636.258 310.234C636.875 309.406 637.184 308.18 637.184 306.555Z" fill="black"/>
</svg>
