<svg width="20" height="20" viewBox="0 0 20 20" fill="none" xmlns="http://www.w3.org/2000/svg">
<path fill-rule="evenodd" clip-rule="evenodd" d="M4 13.4056C2.89543 13.4056 2 14.3011 2 15.4056C2 16.5102 2.89543 17.4056 4 17.4056C5.10457 17.4056 6 16.5102 6 15.4056C6 14.3011 5.10457 13.4056 4 13.4056ZM0 15.4056C0 13.1965 1.79086 11.4056 4 11.4056C6.20914 11.4056 8 13.1965 8 15.4056C8 17.6148 6.20914 19.4056 4 19.4056C1.79086 19.4056 0 17.6148 0 15.4056Z" fill="#474747"/>
<path fill-rule="evenodd" clip-rule="evenodd" d="M8 1.90564V15.6556H6V1.90564H8Z" fill="#474747"/>
<path fill-rule="evenodd" clip-rule="evenodd" d="M15.5 13.4056C14.3954 13.4056 13.5 14.3011 13.5 15.4056C13.5 16.5102 14.3954 17.4056 15.5 17.4056C16.6046 17.4056 17.5 16.5102 17.5 15.4056C17.5 14.3011 16.6046 13.4056 15.5 13.4056ZM11.5 15.4056C11.5 13.1965 13.2909 11.4056 15.5 11.4056C17.7091 11.4056 19.5 13.1965 19.5 15.4056C19.5 17.6148 17.7091 19.4056 15.5 19.4056C13.2909 19.4056 11.5 17.6148 11.5 15.4056Z" fill="#474747"/>
<path fill-rule="evenodd" clip-rule="evenodd" d="M19.5 3.90564V15.6556H17.5V3.90564H19.5Z" fill="#474747"/>
<path fill-rule="evenodd" clip-rule="evenodd" d="M6 2.00016C6 1.06897 6.83959 0.362787 7.75701 0.522338L18.257 2.34843C18.9755 2.47338 19.5 3.09697 19.5 3.82624V6.81123C19.5 7.74242 18.6604 8.4486 17.743 8.28905L7.24299 6.46296C6.52451 6.33801 6 5.71441 6 4.98515V2.00016ZM8 2.59462V4.5646L17.5 6.21677V4.24679L8 2.59462Z" fill="#474747"/>
</svg>
