<svg width="20" height="19" viewBox="0 0 20 19" fill="none" xmlns="http://www.w3.org/2000/svg">
<path fill-rule="evenodd" clip-rule="evenodd" d="M4 13C2.89543 13 2 13.8954 2 15C2 16.1046 2.89543 17 4 17C5.10457 17 6 16.1046 6 15C6 13.8954 5.10457 13 4 13ZM0 15C0 12.7909 1.79086 11 4 11C6.20914 11 8 12.7909 8 15C8 17.2091 6.20914 19 4 19C1.79086 19 0 17.2091 0 15Z" fill="#8E8E93"/>
<path fill-rule="evenodd" clip-rule="evenodd" d="M8 1.5V15.25H6V1.5H8Z" fill="#8E8E93"/>
<path fill-rule="evenodd" clip-rule="evenodd" d="M15.5 13C14.3954 13 13.5 13.8954 13.5 15C13.5 16.1046 14.3954 17 15.5 17C16.6046 17 17.5 16.1046 17.5 15C17.5 13.8954 16.6046 13 15.5 13ZM11.5 15C11.5 12.7909 13.2909 11 15.5 11C17.7091 11 19.5 12.7909 19.5 15C19.5 17.2091 17.7091 19 15.5 19C13.2909 19 11.5 17.2091 11.5 15Z" fill="#8E8E93"/>
<path fill-rule="evenodd" clip-rule="evenodd" d="M19.5 3.5V15.25H17.5V3.5H19.5Z" fill="#8E8E93"/>
<path fill-rule="evenodd" clip-rule="evenodd" d="M6 1.59464C6 0.663449 6.83959 -0.0427305 7.75701 0.116821L18.257 1.94291C18.9755 2.06786 19.5 2.69146 19.5 3.42073V6.40572C19.5 7.33691 18.6604 8.04308 17.743 7.88353L7.24299 6.05745C6.52451 5.93249 6 5.3089 6 4.57963V1.59464ZM8 2.1891V4.15908L17.5 5.81125V3.84127L8 2.1891Z" fill="#8E8E93"/>
</svg>
