<svg width="21" height="20" viewBox="0 0 21 20" fill="none" xmlns="http://www.w3.org/2000/svg">
<path fill-rule="evenodd" clip-rule="evenodd" d="M4.8335 13.5C3.72893 13.5 2.8335 14.3954 2.8335 15.5C2.8335 16.6046 3.72893 17.5 4.8335 17.5C5.93807 17.5 6.8335 16.6046 6.8335 15.5C6.8335 14.3954 5.93807 13.5 4.8335 13.5ZM0.833496 15.5C0.833496 13.2909 2.62436 11.5 4.8335 11.5C7.04263 11.5 8.8335 13.2909 8.8335 15.5C8.8335 17.7091 7.04263 19.5 4.8335 19.5C2.62436 19.5 0.833496 17.7091 0.833496 15.5Z" fill="white"/>
<path fill-rule="evenodd" clip-rule="evenodd" d="M8.8335 2V15.75H6.8335V2H8.8335Z" fill="white"/>
<path fill-rule="evenodd" clip-rule="evenodd" d="M16.3335 13.5C15.2289 13.5 14.3335 14.3954 14.3335 15.5C14.3335 16.6046 15.2289 17.5 16.3335 17.5C17.4381 17.5 18.3335 16.6046 18.3335 15.5C18.3335 14.3954 17.4381 13.5 16.3335 13.5ZM12.3335 15.5C12.3335 13.2909 14.1244 11.5 16.3335 11.5C18.5426 11.5 20.3335 13.2909 20.3335 15.5C20.3335 17.7091 18.5426 19.5 16.3335 19.5C14.1244 19.5 12.3335 17.7091 12.3335 15.5Z" fill="white"/>
<path fill-rule="evenodd" clip-rule="evenodd" d="M20.3335 4V15.75H18.3335V4H20.3335Z" fill="white"/>
<path fill-rule="evenodd" clip-rule="evenodd" d="M6.8335 2.09415C6.8335 1.16296 7.67309 0.456781 8.59051 0.616332L19.0905 2.44242C19.809 2.56737 20.3335 3.19097 20.3335 3.92024V6.90523C20.3335 7.83642 19.4939 8.5426 18.5765 8.38304L8.07648 6.55696C7.358 6.432 6.8335 5.80841 6.8335 5.07914V2.09415ZM8.8335 2.68861V4.65859L18.3335 6.31077V4.34079L8.8335 2.68861Z" fill="white"/>
</svg>
