<svg width="24" height="24" viewBox="0 0 24 24" fill="none" xmlns="http://www.w3.org/2000/svg">
<path fill-rule="evenodd" clip-rule="evenodd" d="M12 3C7.02944 3 3 7.02944 3 12C3 16.9706 7.02944 21 12 21C16.9706 21 21 16.9706 21 12C21 7.02944 16.9706 3 12 3ZM1 12C1 5.92487 5.92487 1 12 1C18.0751 1 23 5.92487 23 12C23 18.0751 18.0751 23 12 23C5.92487 23 1 18.0751 1 12Z" fill="#27A080"/>
<path fill-rule="evenodd" clip-rule="evenodd" d="M18.7071 8.70718L10.7071 16.7072C10.3165 17.0977 9.68337 17.0977 9.29285 16.7072L5.79285 13.2072L7.20706 11.793L9.99995 14.5859L17.2928 7.29297L18.7071 8.70718Z" fill="#27A080"/>
</svg>
