<svg width="41" height="41" viewBox="0 0 41 41" fill="none" xmlns="http://www.w3.org/2000/svg">
<path fill-rule="evenodd" clip-rule="evenodd" d="M20.9897 5.83407C12.7054 5.83407 5.98971 12.5498 5.98971 20.8341C5.98971 29.1183 12.7054 35.8341 20.9897 35.8341C29.274 35.8341 35.9897 29.1183 35.9897 20.8341C35.9897 12.5498 29.274 5.83407 20.9897 5.83407ZM2.65637 20.8341C2.65637 10.7088 10.8645 2.50073 20.9897 2.50073C31.1149 2.50073 39.323 10.7088 39.323 20.8341C39.323 30.9593 31.1149 39.1674 20.9897 39.1674C10.8645 39.1674 2.65637 30.9593 2.65637 20.8341Z" fill="#474747"/>
<path fill-rule="evenodd" clip-rule="evenodd" d="M19.323 30.834V10.834H22.6563V30.834H19.323Z" fill="#474747"/>
<path fill-rule="evenodd" clip-rule="evenodd" d="M30.9897 22.5007H10.9897V19.1674H30.9897V22.5007Z" fill="#474747"/>
</svg>
