<svg width="24" height="24" viewBox="0 0 24 24" fill="none" xmlns="http://www.w3.org/2000/svg">
<path fill-rule="evenodd" clip-rule="evenodd" d="M12 3C7.02944 3 3 7.02944 3 12C3 16.9706 7.02944 21 12 21C16.9706 21 21 16.9706 21 12C21 7.02944 16.9706 3 12 3ZM1 12C1 5.92487 5.92487 1 12 1C18.0751 1 23 5.92487 23 12C23 18.0751 18.0751 23 12 23C5.92487 23 1 18.0751 1 12Z" fill="#EF476F"/>
<path fill-rule="evenodd" clip-rule="evenodd" d="M15.5356 16.9501L7.05029 8.46484L8.46451 7.05063L16.9498 15.5359L15.5356 16.9501Z" fill="#EF476F"/>
<path fill-rule="evenodd" clip-rule="evenodd" d="M16.9498 8.46491L8.46448 16.9502L7.05026 15.536L15.5355 7.0507L16.9498 8.46491Z" fill="#EF476F"/>
</svg>
