<svg width="16" height="12" viewBox="0 0 16 12" fill="none" xmlns="http://www.w3.org/2000/svg">
<path fill-rule="evenodd" clip-rule="evenodd" d="M1.42728 6C1.50014 6.12591 1.59674 6.28637 1.7164 6.47165C2.02375 6.94754 2.4789 7.5804 3.06981 8.21071C4.2638 9.48429 5.93313 10.6667 8.00012 10.6667C10.0671 10.6667 11.7364 9.48429 12.9304 8.21071C13.5213 7.5804 13.9765 6.94754 14.2838 6.47165C14.4035 6.28637 14.5001 6.12591 14.573 6C14.5001 5.87409 14.4035 5.71363 14.2838 5.52835C13.9765 5.05246 13.5213 4.4196 12.9304 3.78929C11.7364 2.51571 10.0671 1.33333 8.00012 1.33333C5.93313 1.33333 4.2638 2.51571 3.06981 3.78929C2.4789 4.4196 2.02375 5.05246 1.7164 5.52835C1.59674 5.71363 1.50014 5.87409 1.42728 6ZM15.3335 6C15.9297 5.70186 15.9295 5.70139 15.9295 5.70139L15.9284 5.69925L15.9261 5.69469L15.9186 5.67988C15.9122 5.66752 15.9032 5.65021 15.8916 5.62829C15.8684 5.58447 15.8348 5.52215 15.7908 5.44399C15.7029 5.28776 15.5736 5.06768 15.4039 4.80498C15.0654 4.28087 14.5622 3.5804 13.9031 2.87737C12.5971 1.48429 10.5998 0 8.00012 0C5.40045 0 3.40311 1.48429 2.0971 2.87737C1.43801 3.5804 0.934832 4.28087 0.596346 4.80498C0.426689 5.06768 0.297317 5.28776 0.209436 5.44399C0.165471 5.52215 0.131815 5.58447 0.108624 5.62829C0.0970265 5.65021 0.0880388 5.66752 0.0816807 5.67988L0.0741154 5.69469L0.0718147 5.69925L0.0710355 5.7008C0.0710355 5.7008 0.070504 5.70186 0.666789 6L0.0705039 5.70186C-0.0233386 5.88954 -0.0233386 6.11046 0.0705039 6.29814L0.666789 6C0.070504 6.29814 0.0705039 6.29814 0.0705039 6.29814L0.0710355 6.2992L0.0718147 6.30075L0.0741154 6.30531L0.0816807 6.32012C0.0880388 6.33248 0.0970265 6.34979 0.108624 6.37171C0.131815 6.41553 0.165471 6.47785 0.209436 6.55601C0.297317 6.71224 0.426689 6.93232 0.596346 7.19502C0.934832 7.71912 1.43801 8.4196 2.0971 9.12263C3.40311 10.5157 5.40045 12 8.00012 12C10.5998 12 12.5971 10.5157 13.9031 9.12263C14.5622 8.4196 15.0654 7.71912 15.4039 7.19502C15.5736 6.93232 15.7029 6.71224 15.7908 6.55601C15.8348 6.47785 15.8684 6.41553 15.8916 6.37171C15.9032 6.34979 15.9122 6.33248 15.9186 6.32012L15.9261 6.30531L15.9284 6.30075L15.9292 6.2992C15.9292 6.2992 15.9297 6.29814 15.3335 6ZM15.3335 6L15.9297 6.29814C16.0236 6.11046 16.0233 5.88907 15.9295 5.70139L15.3335 6ZM8.00013 4.66668C7.26375 4.66668 6.6668 5.26363 6.6668 6.00001C6.6668 6.73639 7.26375 7.33334 8.00013 7.33334C8.73651 7.33334 9.33347 6.73639 9.33347 6.00001C9.33347 5.26363 8.73651 4.66668 8.00013 4.66668ZM5.33347 6.00001C5.33347 4.52725 6.52737 3.33334 8.00013 3.33334C9.47289 3.33334 10.6668 4.52725 10.6668 6.00001C10.6668 7.47277 9.47289 8.66668 8.00013 8.66668C6.52737 8.66668 5.33347 7.47277 5.33347 6.00001Z" fill="#777777"/>
</svg>
