<svg width="23" height="21" viewBox="0 0 23 21" fill="none" xmlns="http://www.w3.org/2000/svg">
<path d="M20.0871 2.22873C22.6759 4.73982 22.8448 8.72335 20.5862 11.4271C20.5404 11.5066 20.4834 11.5801 20.4162 11.6452L11.8593 19.9453C11.4714 20.3216 10.8547 20.3216 10.4668 19.9453L1.90991 11.6452C1.8428 11.5801 1.7858 11.5066 1.73993 11.4271C-0.518643 8.72335 -0.349768 4.73982 2.23902 2.22873C4.67058 -0.129862 8.42478 -0.402399 11.1631 1.40482C13.9014 -0.4024 17.6556 -0.129862 20.0871 2.22873Z" fill="#474747"/>
<path fill-rule="evenodd" clip-rule="evenodd" d="M17.1631 7.22754C17.1631 6.12297 16.2677 5.22754 15.1631 5.22754V3.22754C17.3722 3.22754 19.1631 5.0184 19.1631 7.22754H17.1631Z" fill="white"/>
</svg>
