<svg width="22" height="20" viewBox="0 0 22 20" fill="none" xmlns="http://www.w3.org/2000/svg">
<path fill-rule="evenodd" clip-rule="evenodd" d="M18.5315 3.43678C16.6504 1.6121 13.6412 1.52395 11.6524 3.18025C11.463 3.33806 11.2308 3.41467 11 3.41177C10.7692 3.41467 10.537 3.33806 10.3476 3.18025C8.35884 1.52395 5.34959 1.6121 3.46845 3.43678C1.60151 5.24769 1.51613 8.11776 3.20434 10.025C3.22914 10.053 3.25209 10.082 3.2732 10.1119L11 17.6068L18.7268 10.1119C18.7479 10.082 18.7709 10.053 18.7957 10.025C20.4839 8.11776 20.3985 5.24769 18.5315 3.43678ZM20.4231 11.1995C22.6817 8.49581 22.5128 4.51228 19.9241 2.00119C17.4925 -0.357401 13.7383 -0.629939 11 1.17728C8.2617 -0.629938 4.5075 -0.357401 2.07594 2.00119C-0.512847 4.51228 -0.681721 8.49581 1.57685 11.1995C1.62272 11.279 1.67972 11.3526 1.74683 11.4177L10.3037 19.7178C10.6917 20.094 11.3083 20.094 11.6963 19.7178L20.2532 11.4177C20.3203 11.3526 20.3773 11.279 20.4231 11.1995Z" fill="#474747"/>
<path fill-rule="evenodd" clip-rule="evenodd" d="M17 7C17 5.89543 16.1046 5 15 5V3C17.2091 3 19 4.79086 19 7H17Z" fill="#474747"/>
</svg>
