<svg width="41" height="41" viewBox="0 0 41 41" fill="none" xmlns="http://www.w3.org/2000/svg">
<path fill-rule="evenodd" clip-rule="evenodd" d="M21.9142 8.45334C21.3543 8.08012 20.625 8.08012 20.0652 8.45334L8.3985 16.2311C7.93483 16.5402 7.65633 17.0606 7.65633 17.6179V32.5006C7.65633 33.4211 8.40252 34.1673 9.323 34.1673H14.323V27.5006C14.323 24.7392 16.5616 22.5006 19.323 22.5006H22.6563C25.4178 22.5006 27.6563 24.7392 27.6563 27.5006V34.1673H32.6563C33.5768 34.1673 34.323 33.4211 34.323 32.5006V17.6179C34.323 17.0606 34.0445 16.5402 33.5808 16.2311L21.9142 8.45334ZM18.2162 5.67984C19.8957 4.56017 22.0837 4.56017 23.7632 5.67984L35.4298 13.4576C36.8208 14.3849 37.6563 15.9461 37.6563 17.6179V32.5006C37.6563 35.262 35.4178 37.5006 32.6563 37.5006H25.9897C25.0692 37.5006 24.323 36.7544 24.323 35.8339V27.5006C24.323 26.5801 23.5768 25.8339 22.6563 25.8339H19.323C18.4025 25.8339 17.6563 26.5801 17.6563 27.5006V35.8339C17.6563 36.7544 16.9101 37.5006 15.9897 37.5006H9.323C6.56157 37.5006 4.323 35.262 4.323 32.5006V17.6179C4.323 15.9461 5.1585 14.3849 6.5495 13.4576L18.2162 5.67984Z" fill="#474747"/>
</svg>
