<svg width="18" height="22" viewBox="0 0 18 22" fill="none" xmlns="http://www.w3.org/2000/svg">
<path fill-rule="evenodd" clip-rule="evenodd" d="M3 2C2.44772 2 2 2.44772 2 3V19C2 19.5523 2.44772 20 3 20H15C15.5523 20 16 19.5523 16 19V7.91987C16 7.62794 15.8724 7.3506 15.6508 7.16061L9.91094 2.24074C9.7297 2.08539 9.49886 2 9.26015 2H3ZM0 3C0 1.34315 1.34315 0 3 0H9.26015C9.97629 0 10.6688 0.256177 11.2125 0.72223L16.9524 5.6421C17.6173 6.21205 18 7.0441 18 7.91987V19C18 20.6569 16.6569 22 15 22H3C1.34315 22 0 20.6569 0 19V3Z" fill="#8E8E93"/>
<path fill-rule="evenodd" clip-rule="evenodd" d="M9 5V1.5H11V5C11 5.55228 11.4477 6 12 6H16.5V8H12C10.3431 8 9 6.65685 9 5Z" fill="#8E8E93"/>
<path fill-rule="evenodd" clip-rule="evenodd" d="M12 12H4V10H12V12Z" fill="#8E8E93"/>
<path fill-rule="evenodd" clip-rule="evenodd" d="M8.5 15H4V13H8.5V15Z" fill="#8E8E93"/>
<path fill-rule="evenodd" clip-rule="evenodd" d="M11 18H4V16H11V18Z" fill="#8E8E93"/>
</svg>
