<svg width="18" height="21" viewBox="0 0 18 21" fill="none" xmlns="http://www.w3.org/2000/svg">
<path fill-rule="evenodd" clip-rule="evenodd" d="M0 2C0 1.44772 0.447715 1 1 1H17C17.5523 1 18 1.44772 18 2V20C18 20.5523 17.5523 21 17 21H1C0.447715 21 0 20.5523 0 20V2ZM2 3V19H16V3H2Z" fill="#8E8E93"/>
<path fill-rule="evenodd" clip-rule="evenodd" d="M6 0V4H4V0H6Z" fill="#8E8E93"/>
<path fill-rule="evenodd" clip-rule="evenodd" d="M10 0V4H8V0H10Z" fill="#8E8E93"/>
<path fill-rule="evenodd" clip-rule="evenodd" d="M14 0V4H12V0H14Z" fill="#8E8E93"/>
<path fill-rule="evenodd" clip-rule="evenodd" d="M11 9H4V7H11V9Z" fill="#8E8E93"/>
<path fill-rule="evenodd" clip-rule="evenodd" d="M14.5 13H4V11H14.5V13Z" fill="#8E8E93"/>
<path fill-rule="evenodd" clip-rule="evenodd" d="M12 17H4V15H12V17Z" fill="#8E8E93"/>
</svg>
