<svg width="28" height="29" viewBox="0 0 28 29" fill="none" xmlns="http://www.w3.org/2000/svg">
<path fill-rule="evenodd" clip-rule="evenodd" d="M5.19204 9.81333C5.79568 6.67439 8.5423 4.40564 11.7388 4.40564H16.2613C19.4577 4.40564 22.2043 6.67439 22.808 9.81332L25.3093 22.8205C25.3845 23.2111 25.2813 23.6148 25.028 23.9214C24.7747 24.2281 24.3977 24.4056 24 24.4056H4C3.60227 24.4056 3.22531 24.2281 2.97202 23.9214C2.71872 23.6148 2.61555 23.2111 2.69066 22.8205L5.19204 9.81333ZM11.7388 7.07231C9.82088 7.07231 8.17291 8.43356 7.81072 10.3169L5.61417 21.739H22.3858L20.1893 10.3169C19.8271 8.43356 18.1791 7.07231 16.2613 7.07231H11.7388Z" fill="#474747"/>
<path fill-rule="evenodd" clip-rule="evenodd" d="M27.3333 24.4056H0.666667V21.739H27.3333V24.4056Z" fill="#474747"/>
<path fill-rule="evenodd" clip-rule="evenodd" d="M8.66667 23.0723C8.66667 22.3359 9.26362 21.739 10 21.739H18C18.7364 21.739 19.3333 22.3359 19.3333 23.0723V24.4056C19.3333 26.6148 17.5425 28.4056 15.3333 28.4056H12.6667C10.4575 28.4056 8.66667 26.6148 8.66667 24.4056V23.0723ZM11.3333 24.4056C11.3333 25.142 11.9303 25.739 12.6667 25.739H15.3333C16.0697 25.739 16.6667 25.142 16.6667 24.4056H11.3333Z" fill="#474747"/>
<path fill-rule="evenodd" clip-rule="evenodd" d="M10 5.73898C10 6.47536 10.597 7.07231 11.3333 7.07231H16.6667C17.403 7.07231 18 6.47536 18 5.73898V4.40564C18 2.19651 16.2091 0.405645 14 0.405645C11.7909 0.405645 10 2.19651 10 4.40564V5.73898ZM12.6667 4.40564C12.6667 3.66927 13.2636 3.07231 14 3.07231C14.7364 3.07231 15.3333 3.66927 15.3333 4.40564H12.6667Z" fill="#474747"/>
</svg>
