<svg width="20" height="19" viewBox="0 0 20 19" fill="none" xmlns="http://www.w3.org/2000/svg">
<path fill-rule="evenodd" clip-rule="evenodd" d="M8.09784 2.02381C8.69655 0.181183 11.3034 0.181197 11.9021 2.02381L13.1962 6.00659L17.3839 6.00659C19.3214 6.00659 20.1269 8.48583 18.5595 9.62463L15.1715 12.0861L16.4656 16.0689C17.0643 17.9115 14.9553 19.4438 13.3879 18.305L9.99996 15.8435L6.612 18.305C5.04457 19.4438 2.93562 17.9115 3.53432 16.0689L4.8284 12.0861L1.44045 9.62462C-0.126987 8.48582 0.678578 6.00659 2.61602 6.00659H6.80376L8.09784 2.02381ZM9.99996 2.64184L8.70587 6.62463C8.43813 7.44867 7.67021 8.00659 6.80376 8.00659H2.61602L6.00397 10.4681C6.70495 10.9774 6.99826 11.8801 6.73052 12.7042L5.43643 16.6869L8.82439 14.2254C9.52536 13.7162 10.4746 13.7161 11.1755 14.2254L14.5635 16.6869L13.2694 12.7042C13.0017 11.8801 13.295 10.9774 13.9959 10.4681L17.3839 8.00659H13.1962C12.3297 8.00659 11.5618 7.44867 11.294 6.62463L9.99996 2.64184Z" fill="#474747"/>
</svg>
