<svg width="20" height="19" viewBox="0 0 20 19" fill="none" xmlns="http://www.w3.org/2000/svg">
<path fill-rule="evenodd" clip-rule="evenodd" d="M8.09797 1.61805C8.69667 -0.224578 11.3035 -0.224564 11.9022 1.61805L13.1963 5.60083L17.384 5.60083C19.3215 5.60083 20.127 8.08006 18.5596 9.21886L15.1716 11.6804L16.4657 15.6631C17.0644 17.5058 14.9555 19.038 13.388 17.8992L10.0001 15.4377L6.61212 17.8992C5.04469 19.038 2.93574 17.5057 3.53444 15.6631L4.82852 11.6804L1.44057 9.21886C-0.126864 8.08006 0.6787 5.60083 2.61614 5.60083H6.80388L8.09797 1.61805ZM10.0001 2.23608L8.706 6.21886C8.43825 7.04291 7.67034 7.60083 6.80388 7.60083H2.61614L6.00409 10.0623C6.70507 10.5716 6.99839 11.4743 6.73064 12.2984L5.43655 16.2812L8.82451 13.8197C9.52548 13.3104 10.4747 13.3104 11.1756 13.8197L14.5636 16.2812L13.2695 12.2984C13.0018 11.4743 13.2951 10.5716 13.9961 10.0623L17.384 7.60083H13.1963C12.3298 7.60083 11.5619 7.04291 11.2942 6.21886L10.0001 2.23608Z" fill="#FF9F0A"/>
</svg>
