<svg width="32" height="33" viewBox="0 0 32 33" fill="none" xmlns="http://www.w3.org/2000/svg">
<path fill-rule="evenodd" clip-rule="evenodd" d="M4 6.26856C4 4.05942 5.79086 2.26855 8 2.26855H24C26.2091 2.26855 28 4.05942 28 6.26855V30.2686C28 30.7185 27.773 31.1381 27.3965 31.3844C27.0199 31.6307 26.5445 31.6705 26.1322 31.4901L16 27.0572L5.86776 31.4901C5.45552 31.6705 4.98012 31.6307 4.60354 31.3844C4.22695 31.1381 4 30.7185 4 30.2686V6.26856ZM8 4.93522C7.26362 4.93522 6.66667 5.53217 6.66667 6.26856V28.2299L15.4656 24.3803C15.8063 24.2313 16.1937 24.2313 16.5344 24.3803L25.3333 28.2299V6.26855C25.3333 5.53217 24.7364 4.93522 24 4.93522H8Z" fill="#474747"/>
</svg>
