<svg width="18" height="18" viewBox="0 0 18 18" fill="none" xmlns="http://www.w3.org/2000/svg">
<path fill-rule="evenodd" clip-rule="evenodd" d="M7.33334 2.33329C4.57191 2.33329 2.33334 4.57187 2.33334 7.33329C2.33334 10.0947 4.57191 12.3333 7.33334 12.3333C10.0948 12.3333 12.3333 10.0947 12.3333 7.33329C12.3333 4.57187 10.0948 2.33329 7.33334 2.33329ZM0.666672 7.33329C0.666672 3.65139 3.65144 0.666626 7.33334 0.666626C11.0152 0.666626 14 3.65139 14 7.33329C14 11.0152 11.0152 14 7.33334 14C3.65144 14 0.666672 11.0152 0.666672 7.33329Z" fill="#B9B9B9"/>
<path fill-rule="evenodd" clip-rule="evenodd" d="M10.25 7.33333C10.25 5.7225 8.94417 4.41667 7.33334 4.41667V2.75C9.86465 2.75 11.9167 4.80203 11.9167 7.33333H10.25Z" fill="#B9B9B9"/>
<path fill-rule="evenodd" clip-rule="evenodd" d="M12.0893 10.9106L17.0893 15.9106L15.9108 17.0892L10.9108 12.0892L12.0893 10.9106Z" fill="#B9B9B9"/>
</svg>
