<svg width="41" height="41" viewBox="0 0 41 41" fill="none" xmlns="http://www.w3.org/2000/svg">
<path fill-rule="evenodd" clip-rule="evenodd" d="M17.6565 7.50057C12.1336 7.50057 7.65645 11.9777 7.65645 17.5006C7.65645 23.0234 12.1336 27.5006 17.6565 27.5006C23.1793 27.5006 27.6565 23.0234 27.6565 17.5006C27.6565 11.9777 23.1793 7.50057 17.6565 7.50057ZM4.32312 17.5006C4.32312 10.1368 10.2927 4.16724 17.6565 4.16724C25.0202 4.16724 30.9898 10.1368 30.9898 17.5006C30.9898 24.8644 25.0202 30.8339 17.6565 30.8339C10.2927 30.8339 4.32312 24.8644 4.32312 17.5006Z" fill="#27A080"/>
<path fill-rule="evenodd" clip-rule="evenodd" d="M23.4898 17.5007C23.4898 14.279 20.8782 11.6673 17.6565 11.6673V8.33398C22.7191 8.33398 26.8232 12.438 26.8232 17.5007H23.4898Z" fill="#27A080"/>
<path fill-rule="evenodd" clip-rule="evenodd" d="M27.1683 24.6553L37.1683 34.6553L34.8113 37.0123L24.8113 27.0123L27.1683 24.6553Z" fill="#27A080"/>
</svg>
