<svg width="28" height="27" viewBox="0 0 28 27" fill="none" xmlns="http://www.w3.org/2000/svg">
<path fill-rule="evenodd" clip-rule="evenodd" d="M10.6667 1.4056C10.6667 0.669219 11.2636 0.0722656 12 0.0722656H16C16.7364 0.0722656 17.3333 0.669219 17.3333 1.4056V3.27048C17.8434 3.43817 18.3365 3.64322 18.8092 3.88235L20.1283 2.5633C20.649 2.0426 21.4932 2.0426 22.0139 2.5633L24.8423 5.39172C25.0924 5.64177 25.2328 5.98091 25.2328 6.33453C25.2328 6.68815 25.0924 7.02729 24.8423 7.27734L23.5232 8.5964C23.7624 9.0691 23.9674 9.56215 24.1351 10.0723H26C26.7364 10.0723 27.3333 10.6692 27.3333 11.4056V15.4056C27.3333 16.142 26.7364 16.7389 26 16.7389H24.1351C23.9674 17.249 23.7624 17.7421 23.5232 18.2148L24.8423 19.5339C25.363 20.0546 25.363 20.8988 24.8423 21.4195L22.0139 24.2479C21.4932 24.7686 20.649 24.7686 20.1283 24.2479L18.8092 22.9288C18.3365 23.168 17.8434 23.373 17.3333 23.5407V25.4056C17.3333 26.142 16.7364 26.7389 16 26.7389H12C11.2636 26.7389 10.6667 26.142 10.6667 25.4056V23.5407C10.1565 23.373 9.6635 23.168 9.1908 22.9288L7.87174 24.2479C7.62169 24.498 7.28255 24.6384 6.92893 24.6384C6.57531 24.6384 6.23617 24.498 5.98612 24.2479L3.1577 21.4195C2.637 20.8988 2.637 20.0546 3.1577 19.5339L4.47675 18.2148C4.23762 17.7421 4.03257 17.249 3.86488 16.7389H2C1.26362 16.7389 0.666667 16.142 0.666667 15.4056V11.4056C0.666667 10.6692 1.26362 10.0723 2 10.0723H3.86488C4.03257 9.56215 4.23763 9.0691 4.47675 8.5964L3.1577 7.27734C2.637 6.75664 2.637 5.91242 3.1577 5.39172L5.98612 2.56329C6.50682 2.0426 7.35104 2.0426 7.87174 2.56329L9.1908 3.88235C9.6635 3.64322 10.1565 3.43817 10.6667 3.27048V1.4056ZM13.3333 2.73893V4.28705C13.3333 4.91384 12.8968 5.45601 12.2844 5.5897C11.347 5.79435 10.4707 6.16364 9.68699 6.66644C9.15945 7.00487 8.46741 6.9302 8.02421 6.487L6.92893 5.39172L5.98612 6.33453L7.0814 7.42981C7.5246 7.873 7.59927 8.56505 7.26084 9.09259C6.75804 9.87632 6.38876 10.7526 6.1841 11.69C6.05041 12.3024 5.50824 12.7389 4.88145 12.7389H3.33333V14.0723H4.88145C5.50824 14.0723 6.05041 14.5088 6.1841 15.1212C6.38876 16.0586 6.75804 16.9349 7.26084 17.7186C7.59928 18.2461 7.5246 18.9382 7.0814 19.3814L5.98612 20.4767L6.92893 21.4195L8.02421 20.3242C8.46741 19.881 9.15945 19.8063 9.68699 20.1448C10.4707 20.6476 11.347 21.0168 12.2844 21.2215C12.8968 21.3552 13.3333 21.8974 13.3333 22.5241V24.0723H14.6667V22.5241C14.6667 21.8974 15.1032 21.3552 15.7156 21.2215C16.653 21.0168 17.5293 20.6476 18.313 20.1448C18.8406 19.8063 19.5326 19.881 19.9758 20.3242L21.0711 21.4195L22.0139 20.4767L20.9186 19.3814C20.4754 18.9382 20.4007 18.2461 20.7392 17.7186C21.242 16.9349 21.6112 16.0586 21.8159 15.1212C21.9496 14.5088 22.4918 14.0723 23.1185 14.0723H24.6667V12.7389H23.1185C22.4918 12.7389 21.9496 12.3024 21.8159 11.69C21.6112 10.7526 21.242 9.87632 20.7392 9.09259C20.4007 8.56505 20.4754 7.873 20.9186 7.42981L22.0139 6.33453L21.0711 5.39172L19.9758 6.487C19.5326 6.93019 18.8406 7.00487 18.313 6.66643C17.5293 6.16363 16.653 5.79435 15.7156 5.5897C15.1032 5.45601 14.6667 4.91384 14.6667 4.28705V2.73893H13.3333Z" fill="#474747"/>
<path fill-rule="evenodd" clip-rule="evenodd" d="M14 10.7389C12.5272 10.7389 11.3333 11.9328 11.3333 13.4056C11.3333 14.8784 12.5272 16.0723 14 16.0723C15.4728 16.0723 16.6667 14.8784 16.6667 13.4056C16.6667 11.9328 15.4728 10.7389 14 10.7389ZM8.66667 13.4056C8.66667 10.4601 11.0545 8.07227 14 8.07227C16.9455 8.07227 19.3333 10.4601 19.3333 13.4056C19.3333 16.3511 16.9455 18.7389 14 18.7389C11.0545 18.7389 8.66667 16.3511 8.66667 13.4056Z" fill="#474747"/>
</svg>
