<svg width="16" height="19" viewBox="0 0 16 19" fill="none" xmlns="http://www.w3.org/2000/svg">
<path fill-rule="evenodd" clip-rule="evenodd" d="M4 13C2.89543 13 2 13.8954 2 15C2 16.1046 2.89543 17 4 17C5.10457 17 6 16.1046 6 15C6 13.8954 5.10457 13 4 13ZM0 15C0 12.7909 1.79086 11 4 11C6.20914 11 8 12.7909 8 15C8 17.2091 6.20914 19 4 19C1.79086 19 0 17.2091 0 15Z" fill="white"/>
<path fill-rule="evenodd" clip-rule="evenodd" d="M8 1.5V15.25H6V1.5H8Z" fill="white"/>
<path fill-rule="evenodd" clip-rule="evenodd" d="M6 1.64039C6 0.664531 6.91708 -0.0515064 7.8638 0.185174L14.8638 1.93517C15.5316 2.10211 16 2.70209 16 3.39039V6.35961C16 7.33547 15.0829 8.0515 14.1362 7.81482L7.1362 6.06482C6.46844 5.89789 6 5.29791 6 4.60961V1.64039ZM8 2.28078V4.21922L14 5.71922V3.78078L8 2.28078Z" fill="white"/>
</svg>
