<svg width="17" height="19" viewBox="0 0 17 19" fill="none" xmlns="http://www.w3.org/2000/svg">
<path fill-rule="evenodd" clip-rule="evenodd" d="M4.5 13C3.39543 13 2.5 13.8954 2.5 15C2.5 16.1046 3.39543 17 4.5 17C5.60457 17 6.5 16.1046 6.5 15C6.5 13.8954 5.60457 13 4.5 13ZM0.5 15C0.5 12.7909 2.29086 11 4.5 11C6.70914 11 8.5 12.7909 8.5 15C8.5 17.2091 6.70914 19 4.5 19C2.29086 19 0.5 17.2091 0.5 15Z" fill="#007C9E"/>
<path fill-rule="evenodd" clip-rule="evenodd" d="M8.5 1.5V15.25H6.5V1.5H8.5Z" fill="#007C9E"/>
<path fill-rule="evenodd" clip-rule="evenodd" d="M6.5 1.64039C6.5 0.664531 7.41708 -0.0515064 8.3638 0.185174L15.3638 1.93517C16.0316 2.10211 16.5 2.70209 16.5 3.39039V6.35961C16.5 7.33547 15.5829 8.0515 14.6362 7.81482L7.6362 6.06482C6.96844 5.89789 6.5 5.29791 6.5 4.60961V1.64039ZM8.5 2.28078V4.21922L14.5 5.71922V3.78078L8.5 2.28078Z" fill="#007C9E"/>
</svg>
