<svg width="16" height="20" viewBox="0 0 16 20" fill="none" xmlns="http://www.w3.org/2000/svg">
<path fill-rule="evenodd" clip-rule="evenodd" d="M4 13.4056C2.89543 13.4056 2 14.3011 2 15.4056C2 16.5102 2.89543 17.4056 4 17.4056C5.10457 17.4056 6 16.5102 6 15.4056C6 14.3011 5.10457 13.4056 4 13.4056ZM0 15.4056C0 13.1965 1.79086 11.4056 4 11.4056C6.20914 11.4056 8 13.1965 8 15.4056C8 17.6148 6.20914 19.4056 4 19.4056C1.79086 19.4056 0 17.6148 0 15.4056Z" fill="#474747"/>
<path fill-rule="evenodd" clip-rule="evenodd" d="M8 1.90564V15.6556H6V1.90564H8Z" fill="#474747"/>
<path fill-rule="evenodd" clip-rule="evenodd" d="M6 2.04603C6 1.07017 6.91708 0.354133 7.8638 0.590813L14.8638 2.34081C15.5316 2.50775 16 3.10773 16 3.79603V6.76525C16 7.74111 15.0829 8.45714 14.1362 8.22046L7.1362 6.47046C6.46844 6.30353 6 5.70355 6 5.01525V2.04603ZM8 2.68642V4.62486L14 6.12486V4.18642L8 2.68642Z" fill="#474747"/>
</svg>
