<svg width="41" height="41" viewBox="0 0 41 41" fill="none" xmlns="http://www.w3.org/2000/svg">
<path fill-rule="evenodd" clip-rule="evenodd" d="M20.9898 5.83407C16.8477 5.83407 13.4898 9.19193 13.4898 13.3341C13.4898 17.4762 16.8477 20.8341 20.9898 20.8341C25.132 20.8341 28.4898 17.4762 28.4898 13.3341C28.4898 9.19193 25.132 5.83407 20.9898 5.83407ZM10.1565 13.3341C10.1565 7.35098 15.0067 2.50073 20.9898 2.50073C26.9729 2.50073 31.8232 7.35098 31.8232 13.3341C31.8232 19.3172 26.9729 24.1674 20.9898 24.1674C15.0067 24.1674 10.1565 19.3172 10.1565 13.3341Z" fill="#27A080"/>
<path fill-rule="evenodd" clip-rule="evenodd" d="M20.9898 24.1673C13.7148 24.1673 7.80867 28.738 6.34512 34.6031C6.27107 34.8998 6.3452 35.1582 6.55739 35.3873C6.78967 35.638 7.18518 35.834 7.65647 35.834H34.3231C34.7944 35.834 35.1899 35.638 35.4222 35.3873C35.6344 35.1582 35.7085 34.8998 35.6345 34.6031C34.1709 28.738 28.2648 24.1673 20.9898 24.1673ZM3.11096 33.796C4.98926 26.2688 12.3756 20.834 20.9898 20.834C29.604 20.834 36.9903 26.2688 38.8686 33.796C39.6478 36.9185 36.9349 39.1673 34.3231 39.1673H7.65647C5.04469 39.1673 2.3318 36.9185 3.11096 33.796Z" fill="#27A080"/>
</svg>
