<svg width="20" height="21" viewBox="0 0 20 21" fill="none" xmlns="http://www.w3.org/2000/svg">
<path fill-rule="evenodd" clip-rule="evenodd" d="M10 2.90564C5.58172 2.90564 2 6.48736 2 10.9056C2 15.3239 5.58172 18.9056 10 18.9056C14.4183 18.9056 18 15.3239 18 10.9056C18 6.48736 14.4183 2.90564 10 2.90564ZM0 10.9056C0 5.38279 4.47715 0.90564 10 0.90564C15.5228 0.90564 20 5.38279 20 10.9056C20 16.4285 15.5228 20.9056 10 20.9056C4.47715 20.9056 0 16.4285 0 10.9056Z" fill="#474747"/>
<path fill-rule="evenodd" clip-rule="evenodd" d="M10 6.90564C8.89543 6.90564 8 7.80107 8 8.90564C8 10.0102 8.89543 10.9056 10 10.9056C11.1046 10.9056 12 10.0102 12 8.90564C12 7.80107 11.1046 6.90564 10 6.90564ZM6 8.90564C6 6.6965 7.79086 4.90564 10 4.90564C12.2091 4.90564 14 6.6965 14 8.90564C14 11.1148 12.2091 12.9056 10 12.9056C7.79086 12.9056 6 11.1148 6 8.90564Z" fill="#474747"/>
<path fill-rule="evenodd" clip-rule="evenodd" d="M10 15.4056C7.78041 15.4056 5.84102 16.6104 4.80208 18.4064L3.07087 17.4049C4.4526 15.0163 7.03761 13.4056 10 13.4056C12.9624 13.4056 15.5474 15.0163 16.9291 17.4049L15.1979 18.4064C14.159 16.6104 12.2196 15.4056 10 15.4056Z" fill="#474747"/>
</svg>
