<svg width="24" height="24" viewBox="0 0 24 24" fill="none" xmlns="http://www.w3.org/2000/svg">
<path fill-rule="evenodd" clip-rule="evenodd" d="M12.862 5.43732C12.4753 4.78001 11.5247 4.78001 11.1381 5.43732L4.63493 16.4927C4.24279 17.1593 4.72345 17.9997 5.49686 17.9997H18.5032C19.2766 17.9997 19.7573 17.1593 19.3651 16.4927L12.862 5.43732ZM9.41423 4.42328C10.5742 2.45136 13.4259 2.45136 14.5858 4.42328L21.089 15.4787C22.2654 17.4786 20.8234 19.9997 18.5032 19.9997H5.49686C3.17661 19.9997 1.73465 17.4786 2.91106 15.4787L9.41423 4.42328Z" fill="#FF9F0A"/>
<path fill-rule="evenodd" clip-rule="evenodd" d="M11 13V7H13V13H11Z" fill="#FF9F0A"/>
<path fill-rule="evenodd" clip-rule="evenodd" d="M11 16.5V15H13V16.5H11Z" fill="#FF9F0A"/>
</svg>
