<svg width="418" height="316" viewBox="0 0 418 316" fill="none" xmlns="http://www.w3.org/2000/svg">
<path d="M329.561 0C362.771 0 382.258 39.3794 365.132 67.8319C347.203 97.6168 330.577 131.781 328.727 158.377C326.909 184.501 343.624 217.785 363.067 247.029C381.445 274.672 362.927 316 329.732 316C329.618 316 329.553 316.001 329.439 315.999C325.89 315.955 246.128 313.23 246.128 158.377C246.128 0 329.561 0 329.561 0Z" fill="white"/>
<path d="M83.4333 0C50.2639 0 31.0002 39.6377 48.4859 67.8239C66.9646 97.6107 84.0857 131.779 85.9363 158.377C87.8296 185.589 70.4746 220.568 50.9533 250.659C33.7611 277.16 51.6802 316 83.2691 316C83.3785 316 83.4372 316.001 83.5467 315.999C86.9723 315.959 166.866 313.359 166.866 158.377C166.866 0 83.4333 0 83.4333 0Z" fill="white"/>
<path d="M47.9744 67.1216C47.9744 67.1216 140.291 122.176 206.915 122.176C273.538 122.176 366.272 67.1216 366.272 67.1216C366.272 67.1216 329.671 120.934 329.561 159.131C329.451 197.606 366.272 251.895 366.272 251.895C366.272 251.895 273.773 195.332 206.915 195.332C140.056 195.332 48.8087 253.403 48.8087 253.403C48.8087 253.403 85.1021 197.945 85.1021 159.508C85.1021 121.072 47.9744 67.1216 47.9744 67.1216Z" fill="url(#paint0_linear_3_28)"/>
<defs>
<linearGradient id="paint0_linear_3_28" x1="47.5572" y1="63.3507" x2="366.272" y2="63.3507" gradientUnits="userSpaceOnUse">
<stop stop-color="#E3B4FF"/>
<stop offset="0.230681" stop-color="#A0A1FF"/>
<stop offset="0.501303" stop-color="#568DFF" stop-opacity="0.45"/>
<stop offset="0.707983" stop-color="#0777FF"/>
<stop offset="1" stop-color="#479AFF"/>
</linearGradient>
</defs>
</svg>
