<svg width="245" height="210" viewBox="0 0 245 210" fill="none" xmlns="http://www.w3.org/2000/svg">
<path fill-rule="evenodd" clip-rule="evenodd" d="M101.379 0.000361304H103.45C103.476 -0.000121067 103.503 -0.000119802 103.529 0.000361304H143.621L245 177.059L228.103 210H19.0086L0 177.059L101.379 0.000361304ZM182.242 142.059L103.064 5.50652L89.3596 29.4414L108.232 62.6739L108.431 62.7845L108.362 62.9027L153.314 142.059H182.242ZM187.682 143.073C187.868 143.379 187.974 143.736 187.974 144.118C187.974 145.255 187.029 146.177 185.862 146.177H95.1635L78.4973 175H238.984L141.141 4.118H107.111L187.682 143.073ZM97.5444 142.059H148.486L123.244 97.6115L97.5444 142.059ZM60.6408 205.882L76.1165 179.118H239.221L225.493 205.882H60.6408ZM120.859 93.41C120.786 93.4981 120.719 93.5932 120.66 93.6952L55.7918 205.882H24.7556L105.913 67.0915L120.859 93.41ZM103.517 62.8732L20.6915 204.518L4.84203 177.051L86.9356 33.6749L103.517 62.8732Z" fill="url(#paint0_radial_25_14)"/>
<defs>
<radialGradient id="paint0_radial_25_14" cx="0" cy="0" r="1" gradientUnits="userSpaceOnUse" gradientTransform="translate(122.5 107.059) rotate(66.1694) scale(162.051 187.523)">
<stop stop-color="white"/>
<stop offset="1" stop-color="white" stop-opacity="0"/>
</radialGradient>
</defs>
</svg>
